<svg width="32" height="32" viewBox="0 0 32 32" fill="none" xmlns="http://www.w3.org/2000/svg">
<path d="M15.75 2.95312C14.8682 2.95312 14.0479 3.17358 13.2891 3.6145C12.5303 4.05542 11.9304 4.65527 11.4895 5.41406C11.0486 6.17285 10.8281 6.99316 10.8281 7.875V8.85938H5.96777L5.90625 9.78223L4.86035 28.5469H26.6396L25.5938 9.78223L25.5322 8.85938H20.6719V7.875C20.6719 6.99316 20.4514 6.17285 20.0105 5.41406C19.5696 4.65527 18.9697 4.05542 18.2109 3.6145C17.4521 3.17358 16.6318 2.95312 15.75 2.95312ZM15.75 4.92188C16.5703 4.92188 17.2676 5.20898 17.8418 5.7832C18.416 6.35742 18.7031 7.05469 18.7031 7.875V8.85938H12.7969V7.875C12.7969 7.05469 13.084 6.35742 13.6582 5.7832C14.2324 5.20898 14.9297 4.92188 15.75 4.92188ZM7.81348 10.8281H10.8281V13.7812H12.7969V10.8281H18.7031V13.7812H20.6719V10.8281H23.6865L24.5479 26.5781H6.95215L7.81348 10.8281Z" fill="#353639"/>
</svg>
