<svg width="51" height="51" viewBox="0 0 51 51" fill="none" xmlns="http://www.w3.org/2000/svg">
<g clip-path="url(#clip0_1_1318)">
<path d="M27.8389 12.1625C27.8389 12.1625 27.2165 11.9188 25.9718 11.4312C24.7271 10.9437 22.6729 10.7 19.8092 10.7C16.9454 10.7 14.2688 11.1875 11.7794 12.1625C9.29003 13.1375 7.31067 14.4594 5.84136 16.1281C4.37205 17.7969 3.6374 19.5875 3.6374 21.5C3.6374 23.0375 4.1334 24.5187 5.12542 25.9438C6.11744 27.3687 7.51188 28.6063 9.30874 29.6562L12.0321 31.2312L11.0495 33.5937C11.6858 33.2187 12.2661 32.8531 12.7902 32.4969L14.0255 31.625L15.5135 31.9062C16.9735 32.1687 18.4054 32.3 19.8092 32.3C22.6729 32.3 25.3495 31.8125 27.8389 30.8375C30.3283 29.8625 32.3076 28.5406 33.777 26.8719C35.2463 25.2031 35.9809 23.4125 35.9809 21.5C35.9809 19.5875 35.2463 17.7969 33.777 16.1281C32.3076 14.4594 30.3283 13.1375 27.8389 12.1625ZM9.8843 9.02656C9.8843 9.02656 10.6447 8.70547 12.1655 8.06328C13.6863 7.42109 16.2342 7.1 19.8092 7.1C23.3842 7.1 26.6925 7.74219 29.734 9.02656C32.7756 10.3109 35.1761 12.0594 36.9355 14.2719C38.6949 16.4844 39.5746 18.8937 39.5746 21.5C39.5746 24.1062 38.6949 26.5156 36.9355 28.7281C35.1761 30.9406 32.7756 32.6891 29.734 33.9734C26.6925 35.2578 23.3842 35.9 19.8092 35.9C18.1995 35.9 16.5523 35.75 14.8678 35.45C12.5468 37.1 9.94513 38.3 7.06266 39.05C6.38884 39.2187 5.584 39.3687 4.64813 39.5H4.5639C4.35801 39.5 4.16616 39.425 3.98835 39.275C3.81053 39.125 3.70291 38.9281 3.66547 38.6844C3.64675 38.6281 3.6374 38.5672 3.6374 38.5016C3.6374 38.4359 3.64208 38.375 3.65143 38.3187C3.66079 38.2625 3.67951 38.2062 3.70759 38.15C3.73566 38.0938 3.75906 38.0469 3.77778 38.0094C3.79649 37.9719 3.82925 37.9203 3.87604 37.8547C3.92283 37.7891 3.96027 37.7422 3.98835 37.7141C4.01642 37.6859 4.05854 37.6391 4.11469 37.5734C4.17084 37.5078 4.20827 37.4656 4.22699 37.4469C4.32058 37.3344 4.53583 37.1 4.87274 36.7437C5.20965 36.3875 5.45298 36.1109 5.60271 35.9141C5.75245 35.7172 5.96302 35.4453 6.23442 35.0984C6.50583 34.7516 6.73979 34.3906 6.93632 34.0156C7.13285 33.6406 7.32471 33.2281 7.51188 32.7781C5.19093 31.4281 3.36599 29.7687 2.03707 27.8C0.708135 25.8312 0.0436707 23.7313 0.0436707 21.5C0.0436707 18.8937 0.923385 16.4844 2.68281 14.2719C4.44224 12.0594 6.84274 10.3109 9.8843 9.02656ZM42.8876 39.9781C43.0748 40.4281 43.2666 40.8406 43.4632 41.2156C43.6597 41.5906 43.8937 41.9516 44.1651 42.2984C44.4365 42.6453 44.647 42.9172 44.7968 43.1141C44.9465 43.3109 45.1898 43.5875 45.5268 43.9437C45.8637 44.3 46.0789 44.5344 46.1725 44.6469C46.1912 44.6656 46.2287 44.7078 46.2848 44.7734C46.341 44.8391 46.3831 44.8859 46.4111 44.9141C46.4392 44.9422 46.4767 44.9891 46.5235 45.0547C46.5702 45.1203 46.603 45.1719 46.6217 45.2094C46.6404 45.2469 46.6638 45.2937 46.6919 45.35C46.72 45.4062 46.7387 45.4625 46.7481 45.5187C46.7574 45.575 46.7621 45.6359 46.7621 45.7016C46.7621 45.7672 46.7527 45.8281 46.734 45.8844C46.6779 46.1469 46.5562 46.3531 46.369 46.5031C46.1819 46.6531 45.976 46.7188 45.7514 46.7C44.8155 46.5687 44.0107 46.4187 43.3368 46.25C40.4544 45.5 37.8527 44.3 35.5317 42.65C33.8471 42.95 32.2 43.1 30.5903 43.1C25.5179 43.1 21.1007 41.8625 17.3385 39.3875C18.4241 39.4625 19.2476 39.5 19.8092 39.5C22.8226 39.5 25.7145 39.0781 28.4846 38.2344C31.2548 37.3906 33.7255 36.1812 35.8967 34.6062C38.2364 32.8812 40.0332 30.8938 41.2873 28.6437C42.5413 26.3937 43.1684 24.0125 43.1684 21.5C43.1684 20.0562 42.9531 18.6313 42.5226 17.225C44.9372 18.5562 46.8463 20.225 48.2501 22.2312C49.6539 24.2375 50.3558 26.3937 50.3558 28.7C50.3558 30.95 49.6914 33.0547 48.3624 35.0141C47.0335 36.9734 45.2086 38.6281 42.8876 39.9781Z" fill="#10AFF3"/>
</g>
<defs>
<clipPath id="clip0_1_1318">
<rect width="50.4" height="50.4" fill="white" transform="matrix(1 0 0 -1 0 50.4)"/>
</clipPath>
</defs>
</svg>
