<svg width="32" height="32" viewBox="0 0 32 32" fill="none" xmlns="http://www.w3.org/2000/svg">
<path d="M15.75 2.95312C13.8018 2.95312 11.9868 3.44531 10.3052 4.42969C8.66455 5.39355 7.3623 6.6958 6.39844 8.33643C5.41406 10.0181 4.92188 11.833 4.92188 13.7812V19.6875C4.92188 20.3232 5.10645 20.8923 5.47559 21.3948C5.84473 21.8972 6.31641 22.251 6.89062 22.4561V22.6406C6.89062 23.5225 7.11108 24.3428 7.552 25.1016C7.99292 25.8604 8.59277 26.4602 9.35156 26.9011C10.1104 27.342 10.9307 27.5625 11.8125 27.5625H13.0737C13.2583 27.8701 13.4993 28.1111 13.7966 28.2854C14.094 28.4597 14.417 28.5469 14.7656 28.5469H16.7344C17.2676 28.5469 17.729 28.3521 18.1187 27.9624C18.5083 27.5728 18.7031 27.1113 18.7031 26.5781C18.7031 26.0449 18.5083 25.5835 18.1187 25.1938C17.729 24.8042 17.2676 24.6094 16.7344 24.6094H14.7656C14.417 24.6094 14.094 24.6965 13.7966 24.8708C13.4993 25.0452 13.2583 25.2861 13.0737 25.5938H11.8125C10.9922 25.5938 10.2949 25.3066 9.7207 24.7324C9.14648 24.1582 8.85938 23.4609 8.85938 22.6406H10.8281V13.7812H6.89062C6.89062 12.1816 7.29053 10.6948 8.09033 9.3208C8.89014 7.98779 9.95654 6.92139 11.2896 6.12158C12.6636 5.32178 14.1504 4.92188 15.75 4.92188C17.3496 4.92188 18.8364 5.32178 20.2104 6.12158C21.5435 6.92139 22.6099 7.98779 23.4097 9.3208C24.2095 10.6948 24.6094 12.1816 24.6094 13.7812H20.6719V22.6406H23.625C24.4248 22.6406 25.1169 22.3484 25.7014 21.7639C26.2859 21.1794 26.5781 20.4873 26.5781 19.6875V13.7812C26.5781 11.833 26.0859 10.0181 25.1016 8.33643C24.1377 6.6958 22.8354 5.39355 21.1948 4.42969C19.5132 3.44531 17.6982 2.95312 15.75 2.95312ZM6.89062 15.75H8.85938V20.6719H7.875C7.6084 20.6719 7.37769 20.5745 7.18286 20.3796C6.98804 20.1848 6.89062 19.9541 6.89062 19.6875V15.75ZM22.6406 15.75H24.6094V19.6875C24.6094 19.9541 24.512 20.1848 24.3171 20.3796C24.1223 20.5745 23.8916 20.6719 23.625 20.6719H22.6406V15.75Z" fill="#5F6680"/>
</svg>
