<svg width="32" height="32" viewBox="0 0 32 32" fill="none" xmlns="http://www.w3.org/2000/svg">
<path d="M0 5.90625V7.875H18.7031V22.6406H12.6431C12.4175 21.7793 11.9561 21.0718 11.2588 20.5181C10.5615 19.9644 9.76172 19.6875 8.85938 19.6875C7.95703 19.6875 7.15723 19.9644 6.45996 20.5181C5.7627 21.0718 5.30127 21.7793 5.07568 22.6406H3.9375V17.7188H1.96875V24.6094H5.07568C5.30127 25.4707 5.7627 26.1782 6.45996 26.7319C7.15723 27.2856 7.95703 27.5625 8.85938 27.5625C9.76172 27.5625 10.5615 27.2856 11.2588 26.7319C11.9561 26.1782 12.4175 25.4707 12.6431 24.6094H20.8257C21.0513 25.4707 21.5127 26.1782 22.21 26.7319C22.9072 27.2856 23.707 27.5625 24.6094 27.5625C25.5117 27.5625 26.3115 27.2856 27.0088 26.7319C27.7061 26.1782 28.1675 25.4707 28.3931 24.6094H31.5V16.5806L31.4385 16.4268L29.2544 9.84375H20.6719V5.90625H0ZM0.984375 9.84375V11.8125H9.84375V9.84375H0.984375ZM20.6719 11.8125H27.8394L29.5312 16.8574V22.6406H28.3931C28.1675 21.7793 27.7061 21.0718 27.0088 20.5181C26.3115 19.9644 25.5117 19.6875 24.6094 19.6875C23.707 19.6875 22.9072 19.9644 22.21 20.5181C21.5127 21.0718 21.0513 21.7793 20.8257 22.6406H20.6719V11.8125ZM1.96875 13.7812V15.75H7.875V13.7812H1.96875ZM8.85938 21.6562C9.41309 21.6562 9.87964 21.8459 10.259 22.2253C10.6384 22.6047 10.8281 23.0713 10.8281 23.625C10.8281 24.1787 10.6384 24.6453 10.259 25.0247C9.87964 25.4041 9.41309 25.5938 8.85938 25.5938C8.30566 25.5938 7.83911 25.4041 7.45972 25.0247C7.08032 24.6453 6.89062 24.1787 6.89062 23.625C6.89062 23.0713 7.08032 22.6047 7.45972 22.2253C7.83911 21.8459 8.30566 21.6562 8.85938 21.6562ZM24.6094 21.6562C25.1631 21.6562 25.6296 21.8459 26.009 22.2253C26.3884 22.6047 26.5781 23.0713 26.5781 23.625C26.5781 24.1787 26.3884 24.6453 26.009 25.0247C25.6296 25.4041 25.1631 25.5938 24.6094 25.5938C24.0557 25.5938 23.5891 25.4041 23.2097 25.0247C22.8303 24.6453 22.6406 24.1787 22.6406 23.625C22.6406 23.0713 22.8303 22.6047 23.2097 22.2253C23.5891 21.8459 24.0557 21.6562 24.6094 21.6562Z" fill="#5F6680"/>
</svg>
