<svg width="32" height="32" viewBox="0 0 32 32" fill="none" xmlns="http://www.w3.org/2000/svg">
<path d="M22.6099 3.9375C22.4458 3.9375 22.292 3.95801 22.1484 3.99902L6.15234 8.21338C5.49609 8.37744 4.96289 8.72607 4.55273 9.25928C4.14258 9.79248 3.9375 10.3975 3.9375 11.0742V24.6094C3.9375 25.4092 4.22974 26.1013 4.81421 26.6858C5.39868 27.2703 6.09082 27.5625 6.89062 27.5625H24.6094C25.4092 27.5625 26.1013 27.2703 26.6858 26.6858C27.2703 26.1013 27.5625 25.4092 27.5625 24.6094V11.8125C27.5625 11.0127 27.2703 10.3206 26.6858 9.73608C26.1013 9.15161 25.4092 8.85938 24.6094 8.85938H11.4434L22.6406 5.90625V7.875H24.6094V5.90625C24.6094 5.35254 24.4094 4.88599 24.0095 4.50659C23.6096 4.1272 23.1431 3.9375 22.6099 3.9375ZM6.89062 10.8281H24.6094C24.8965 10.8281 25.1323 10.9204 25.3169 11.105C25.5015 11.2896 25.5938 11.5254 25.5938 11.8125V24.6094C25.5938 24.8965 25.5015 25.1323 25.3169 25.3169C25.1323 25.5015 24.8965 25.5938 24.6094 25.5938H6.89062C6.60352 25.5938 6.36768 25.5015 6.18311 25.3169C5.99854 25.1323 5.90625 24.8965 5.90625 24.6094V11.8125C5.90625 11.5254 5.99854 11.2896 6.18311 11.105C6.36768 10.9204 6.60352 10.8281 6.89062 10.8281ZM22.1484 16.7344C21.7383 16.7344 21.3896 16.8779 21.1025 17.165C20.8154 17.4521 20.6719 17.8008 20.6719 18.2109C20.6719 18.6211 20.8154 18.9697 21.1025 19.2568C21.3896 19.5439 21.7383 19.6875 22.1484 19.6875C22.5586 19.6875 22.9072 19.5439 23.1943 19.2568C23.4814 18.9697 23.625 18.6211 23.625 18.2109C23.625 17.8008 23.4814 17.4521 23.1943 17.165C22.9072 16.8779 22.5586 16.7344 22.1484 16.7344Z" fill="#5F6680"/>
</svg>
