<svg width="167" height="77" viewBox="0 0 167 77" fill="none" xmlns="http://www.w3.org/2000/svg">
<g clip-path="url(#clip0_1_1362)">
<g clip-path="url(#clip1_1_1362)">
<g clip-path="url(#clip2_1_1362)">
<path d="M45.7004 17.8112C47.8578 17.8112 50.0151 17.8112 52.172 17.8112C52.2691 17.8112 52.3661 17.8168 52.4626 17.8112C52.6556 17.7988 52.7351 17.8963 52.7547 18.0775C52.7955 18.4481 52.8621 18.8166 52.8879 19.1877C53.0525 21.5742 52.7738 23.9004 51.9124 26.1439C51.146 28.1403 49.8892 29.7795 48.2717 31.1581C46.2609 32.8721 43.9414 33.8884 41.3288 34.2625C38.4081 34.6811 35.5467 34.4736 32.8293 33.2933C27.4885 30.9738 24.2091 26.9517 23.3606 21.1618C22.7169 16.7686 23.9809 12.8342 26.8413 9.43966C29.0394 6.83067 31.8265 5.14605 35.1395 4.3378C36.8334 3.92438 38.55 3.85987 40.2826 4.02245C42.934 4.27174 45.3267 5.19198 47.4769 6.75377C47.9692 7.11144 48.4379 7.49853 48.8848 7.91246C49.0361 8.05233 49.066 8.15916 48.907 8.32123C48.0539 9.18883 47.2116 10.0668 46.36 10.9359C46.184 11.1155 46.1737 11.1047 45.9259 10.8838C44.8704 9.94546 43.688 9.22031 42.3538 8.74754C41.0073 8.27065 39.6179 8.0833 38.1949 8.15297C35.2061 8.29903 32.6848 9.4696 30.6565 11.6652C29.234 13.2048 28.3205 15.0215 27.9613 17.0876C27.3796 20.4356 28.0743 23.4988 30.1894 26.1821C31.8074 28.2348 33.9328 29.5101 36.4984 30.019C38.7606 30.4675 40.9877 30.3152 43.1239 29.4229C45.0113 28.6342 46.5447 27.3981 47.546 25.5788C48.1122 24.5496 48.4147 23.4297 48.587 22.273C48.6247 22.0222 48.6067 22.0052 48.315 22.0026C47.4856 21.9948 46.6557 21.9923 45.8263 21.9923C43.6416 21.9912 41.4563 21.9923 39.2716 21.9923C39.1611 21.9923 39.0501 21.9871 38.9397 21.9923C38.7503 22.001 38.6667 21.9267 38.6677 21.7259C38.6734 20.5089 38.6729 19.2919 38.6677 18.0754C38.6667 17.8777 38.7451 17.8055 38.9381 17.8101C39.2834 17.8184 39.6297 17.8117 39.975 17.8117C41.8831 17.8117 43.7918 17.8117 45.6999 17.8117L45.7004 17.8112Z" fill="#4486F4"/>
<path d="M111.758 16.9621C111.881 16.8532 111.837 16.7206 111.839 16.6029C111.845 16.2989 111.846 15.9944 111.839 15.6904C111.834 15.5098 111.878 15.4071 112.089 15.4081C113.292 15.4138 114.495 15.4127 115.698 15.4091C115.871 15.4091 115.957 15.4762 115.953 15.6517C115.951 15.7482 115.953 15.8452 115.953 15.9423C115.953 21.5143 115.957 27.0859 115.951 32.6579C115.95 34.1965 115.836 35.7242 115.357 37.2008C114.266 40.5613 111.954 42.5112 108.489 43.1016C106.959 43.3623 105.434 43.3184 103.93 42.8849C101.917 42.3037 100.313 41.1404 99.0573 39.4795C98.6475 38.9376 98.3007 38.3564 98.0194 37.7371C97.8894 37.4501 97.8894 37.4419 98.1882 37.3164C99.2457 36.8726 100.305 36.4318 101.365 35.9946C101.649 35.8775 101.658 35.8826 101.796 36.1655C102.274 37.142 102.937 37.9595 103.853 38.5556C104.838 39.1967 105.92 39.4387 107.091 39.3474C107.931 39.2818 108.731 39.1002 109.459 38.6692C110.625 37.9802 111.272 36.919 111.601 35.6375C111.868 34.5939 111.846 33.5276 111.838 32.4628C111.837 32.3962 111.849 32.3085 111.776 32.2781C111.635 32.2192 111.585 32.3575 111.517 32.4293C110.428 33.5689 109.072 34.1722 107.534 34.3751C105.768 34.6083 104.08 34.2873 102.513 33.46C99.495 31.8667 97.6932 29.363 97.2138 25.9855C96.8065 23.1153 97.5766 20.5275 99.4145 18.2824C100.74 16.6628 102.418 15.5536 104.463 15.0607C106.578 14.5503 108.608 14.7475 110.482 15.9392C110.832 16.1621 111.156 16.4202 111.447 16.7196C111.539 16.8135 111.612 16.941 111.757 16.9642L111.758 16.9621ZM112.125 24.4825C112.137 23.7884 112 22.9605 111.688 22.1662C111.097 20.6674 110.112 19.5402 108.574 18.9735C106.441 18.1884 103.99 18.9941 102.62 20.9032C101.72 22.1579 101.367 23.5654 101.466 25.0926C101.584 26.9305 102.32 28.4619 103.824 29.5565C106.075 31.1942 109.182 30.837 110.912 28.5253C111.774 27.3733 112.133 26.0645 112.126 24.482L112.125 24.4825Z" fill="#4486F4"/>
<path d="M64.3237 14.7862C67.8514 14.9276 70.7866 16.4341 72.6962 19.6826C73.7729 21.5138 74.128 23.5241 73.9251 25.6345C73.7259 27.7068 72.9713 29.5503 71.5886 31.109C69.6346 33.3129 67.1484 34.4241 64.2195 34.4256C60.5101 34.4272 57.5847 32.8804 55.6296 29.6933C53.512 26.242 53.6746 20.9399 57.1873 17.5459C58.7166 16.0682 60.5534 15.2063 62.6572 14.9023C63.1516 14.8305 63.6486 14.8228 64.3242 14.7856L64.3237 14.7862ZM69.6491 24.4036C69.6589 23.7078 69.4818 22.8211 69.1092 21.9732C67.4891 18.2834 62.6215 17.5304 60.0177 20.5672C58.2846 22.5889 58.0967 25.8193 59.5816 28.0778C61.6425 31.2117 66.0145 31.4197 68.3572 28.4876C69.2547 27.3646 69.646 26.0619 69.6491 24.4041V24.4036Z" fill="#EA4537"/>
<path d="M85.5325 34.431C81.4489 34.2736 78.3336 32.5297 76.5561 28.763C74.7863 25.0113 75.6575 20.3899 78.6051 17.5373C80.1545 16.038 82.0208 15.1652 84.1612 14.8953C86.67 14.5794 89.0163 15.0517 91.1206 16.4741C93.6594 18.1908 95.0353 20.6176 95.3373 23.6606C95.5231 25.5362 95.2392 27.3426 94.3835 29.0185C92.7391 32.2401 90.0604 33.9882 86.4847 34.3965C86.3201 34.415 86.1539 34.4243 85.9882 34.43C85.8365 34.4357 85.6842 34.431 85.532 34.431H85.5325ZM91.0555 24.6113C91.0535 23.3463 90.7551 22.2568 90.1368 21.2591C88.1296 18.022 83.5465 17.7918 81.2327 20.8116C79.6188 22.9179 79.5713 26.0797 81.1197 28.267C83.0928 31.0535 87.0778 31.3534 89.4292 28.8781C90.56 27.6879 91.0576 26.2407 91.0555 24.6108V24.6113Z" fill="#FBBD07"/>
<path d="M134.122 34.4366C131.719 34.3922 129.24 33.3574 127.33 31.1123C125.89 29.4199 125.171 27.4272 125.057 25.2207C124.944 23.0288 125.354 20.9426 126.532 19.065C128.174 16.4467 130.559 15.015 133.647 14.8271C136.838 14.633 139.324 15.9527 141.208 18.489C141.985 19.5331 142.488 20.714 142.949 21.916C143.044 22.1653 143.035 22.172 142.702 22.3098C140.531 23.2094 138.359 24.108 136.188 25.0066C134.233 25.8153 132.279 26.6231 130.323 27.4313C130.272 27.4525 130.223 27.4778 130.17 27.4948C129.976 27.5577 129.954 27.6687 130.05 27.8411C130.786 29.1608 131.832 30.1033 133.34 30.414C135.677 30.895 137.828 30.1895 139.298 28.1007C139.482 27.8401 139.484 27.8354 139.749 28.0104C140.707 28.6426 141.663 29.2775 142.619 29.9133C142.876 30.0842 142.879 30.0935 142.708 30.3211C140.705 32.992 137.917 34.4511 134.122 34.4361V34.4366ZM129.211 24.2928C129.364 24.2406 129.455 24.2148 129.542 24.1792C132.169 23.0887 134.795 21.9976 137.42 20.9055C138.027 20.6531 138.041 20.6144 137.637 20.0874C136.958 19.2002 136.02 18.7795 134.939 18.6417C132.788 18.3677 130.736 19.7127 129.841 21.4391C129.388 22.315 129.187 23.2461 129.211 24.2928Z" fill="#EA4537"/>
<path d="M118.809 19.3993C118.809 14.7532 118.809 10.1071 118.809 5.46148C118.809 4.92575 118.757 4.95981 119.29 4.96084C120.451 4.96239 121.613 4.96394 122.774 4.96962C123.12 4.97116 123.121 4.97736 123.128 5.30871C123.129 5.37787 123.128 5.44703 123.128 5.51619C123.128 14.7806 123.128 24.045 123.126 33.3093C123.126 33.8895 123.218 33.842 122.6 33.843C121.508 33.8451 120.415 33.8435 119.323 33.843C119.226 33.843 119.129 33.8384 119.032 33.842C118.881 33.8477 118.797 33.7919 118.807 33.6273C118.814 33.5168 118.807 33.4059 118.807 33.2954C118.807 28.6632 118.807 24.031 118.807 19.3988L118.809 19.3993Z" fill="#36A954"/>
</g>
</g>
</g>
<g clip-path="url(#clip3_1_1362)">
<g clip-path="url(#clip4_1_1362)">
<g clip-path="url(#clip5_1_1362)">
<path d="M75.7957 71.1231C75.7957 71.9738 76.1733 72.2796 76.785 72.0216C77.4636 71.7348 78.1087 71.3573 78.7682 71.018C80.1111 70.3203 81.4492 69.613 82.8016 68.9344C82.9736 68.8484 83.2604 68.8675 83.442 68.9535C84.154 69.2833 84.8422 69.656 85.5351 70.024C86.2185 70.3872 86.8971 70.7599 87.5853 71.1231C88.1253 71.4099 88.6701 71.6918 89.2149 71.969C89.5398 72.1363 89.8887 72.1697 90.1946 71.9499C90.5195 71.7109 90.4383 71.3334 90.3905 71.018C90.2376 69.9332 90.0512 68.8579 89.86 67.7779C89.6641 66.674 89.449 65.5701 89.2531 64.4661C89.2388 64.3801 89.2913 64.2511 89.3582 64.1842C89.9317 63.6298 90.5243 63.0946 91.0882 62.5307C92.1682 61.465 93.2292 60.385 94.3092 59.324C94.5386 59.0994 94.5481 58.8557 94.486 58.5833C94.4143 58.2679 94.1754 58.1054 93.8839 58.0528C93.1814 57.9334 92.4741 57.833 91.7668 57.7374C90.3905 57.5511 89.0094 57.3886 87.6331 57.1783C87.2125 57.1162 86.8589 57.0063 86.6199 56.4806C85.7645 54.5738 84.7944 52.7244 83.8721 50.8463C83.5328 50.1533 82.8494 50.0673 82.4671 50.7077C82.0609 51.3911 81.7263 52.1127 81.3727 52.82C80.7276 54.115 80.092 55.4197 79.442 56.7148C79.3273 56.9441 79.1601 57.1162 78.8494 57.1257C78.4289 57.1401 78.0131 57.2213 77.5974 57.2787C76.546 57.4268 75.4994 57.575 74.4529 57.7374C73.6978 57.8521 72.9427 57.9716 72.1924 58.1341C71.6954 58.244 71.5186 58.7362 71.8101 59.152C72.0204 59.4483 72.2832 59.7016 72.5365 59.9644C73.0048 60.4519 73.478 60.9441 73.9654 61.4172C74.8877 62.3204 75.8292 63.2045 76.7467 64.1125C76.8519 64.2176 76.9044 64.4518 76.8805 64.6095C76.7706 65.3502 76.6225 66.0862 76.4934 66.8269C76.374 67.5294 76.2593 68.2319 76.1446 68.9392C76.0156 69.7325 75.8913 70.5258 75.791 71.1327L75.7957 71.1231ZM133.315 71.1805C133.315 71.9833 133.582 72.2079 134.261 72.0216C134.514 71.9547 134.753 71.8304 134.987 71.7109C135.766 71.3095 136.54 70.8938 137.319 70.4875C138.285 69.981 139.255 69.4744 140.225 68.9679C140.507 68.8197 140.751 68.8245 141.052 68.9965C141.73 69.3884 142.442 69.7229 143.145 70.0813C143.756 70.392 144.378 70.6835 144.98 71.0037C145.606 71.3334 146.208 71.7109 146.839 72.0359C147.274 72.2605 148.053 72.0502 147.928 71.3334C147.766 70.3824 147.618 69.4314 147.465 68.4804C147.255 67.1853 147.063 65.8855 146.825 64.5952C146.777 64.3467 146.825 64.2224 146.992 64.0695C147.537 63.5677 148.072 63.0564 148.602 62.5355C149.123 62.0241 149.634 61.5032 150.151 60.9919C150.705 60.4375 151.274 59.8927 151.818 59.324C152.277 58.8461 152.091 58.2631 151.446 58.1198C150.949 58.0098 150.447 57.919 149.945 57.8378C149.204 57.7183 148.459 57.6036 147.713 57.5033C146.863 57.3886 146.012 57.3073 145.166 57.1783C144.903 57.1401 144.588 57.0541 144.421 56.8725C144.167 56.6048 144 56.2416 143.833 55.9023C143.384 54.9896 142.963 54.0672 142.519 53.1497C142.132 52.3516 141.725 51.5631 141.334 50.7698C141.071 50.2441 140.435 50.1103 140.115 50.5309C139.952 50.7411 139.814 50.9705 139.694 51.2095C139.317 51.955 138.954 52.71 138.59 53.4651C138.07 54.5404 137.553 55.6156 137.023 56.6813C136.956 56.8151 136.822 56.9585 136.688 57.011C136.45 57.1066 136.187 57.1496 135.929 57.1879C135.035 57.3217 134.137 57.4507 133.243 57.575C132.258 57.7088 131.269 57.8235 130.285 57.9764C129.988 58.0242 129.668 58.1102 129.434 58.2822C129.09 58.5355 129.186 59.0899 129.544 59.4053C129.702 59.5439 129.893 59.7159 130.041 59.8593C130.476 60.2703 130.892 60.6956 131.307 61.1209C131.781 61.6036 132.244 62.091 132.722 62.5689C133.19 63.0372 133.663 63.5104 134.151 63.9548C134.395 64.1746 134.447 64.4279 134.404 64.7146C134.256 65.6609 134.103 66.6023 133.941 67.5437C133.802 68.3466 133.63 69.1447 133.491 69.9475C133.415 70.3872 133.372 70.8316 133.324 71.1805H133.315ZM46.9981 71.1566C46.9981 71.8495 47.2657 72.1697 47.7006 72.1076C47.9586 72.0694 48.2263 71.9881 48.4556 71.8686C49.096 71.5389 49.7173 71.1661 50.3529 70.8268C51.5667 70.1865 52.7805 69.5461 54.0135 68.9392C54.1951 68.8532 54.4962 68.8914 54.6921 68.9822C55.3946 69.3024 56.0828 69.6656 56.7709 70.024C57.4161 70.3585 58.0517 70.7074 58.7016 71.0419C59.3754 71.386 60.0445 71.7444 60.7374 72.0502C61.2057 72.2557 61.6597 71.9403 61.6072 71.4433C61.5164 70.5688 61.373 69.699 61.2296 68.834C61.0003 67.4291 60.7756 66.0241 60.4985 64.6238C60.4459 64.3467 60.5367 64.2033 60.6848 64.0599C61.1962 63.5629 61.7362 63.0946 62.2428 62.5928C63.3467 61.5032 64.4506 60.4136 65.5306 59.3001C65.8795 58.9417 65.7839 58.2727 65.2248 58.1341C64.9572 58.0672 64.68 58.0146 64.4076 57.9764C63.447 57.8378 62.4865 57.7088 61.5259 57.5702C60.6657 57.4459 59.8055 57.336 58.9549 57.1926C58.6538 57.1401 58.2906 57.0875 58.0899 56.8964C57.8271 56.6431 57.6885 56.256 57.5212 55.9167C57.2488 55.3719 57.0099 54.8128 56.7375 54.268C56.3886 53.5702 56.0063 52.8821 55.6574 52.1844C55.4328 51.7351 55.2465 51.262 55.0266 50.808C54.8785 50.5022 54.63 50.2585 54.2907 50.268C53.9514 50.2776 53.7363 50.5309 53.5882 50.8463C53.2871 51.4866 52.9669 52.1222 52.6467 52.7531C51.9968 54.0338 51.323 55.305 50.7161 56.6048C50.5823 56.8916 50.5106 57.0302 50.1713 57.0732C49.1104 57.207 48.0542 57.4077 46.9981 57.575C45.8129 57.7613 44.6277 57.9525 43.4426 58.1198C42.9265 58.1914 42.7449 58.7936 42.9886 59.1138C43.2036 59.3909 43.4521 59.6442 43.7054 59.8927C45.1439 61.3073 46.5871 62.7171 48.016 64.1412C48.1068 64.232 48.145 64.4375 48.1259 64.576C48.0303 65.2021 47.8965 65.8233 47.7866 66.4494C47.6337 67.3 47.4855 68.1554 47.3469 69.0061C47.2227 69.7755 47.108 70.5497 47.0124 71.1709L46.9981 71.1566ZM104.55 71.2617C104.488 71.9356 105.062 72.2605 105.626 72.0216C105.96 71.8782 106.266 71.6679 106.586 71.5007C108.244 70.6405 109.903 69.7755 111.566 68.9296C111.704 68.8579 111.9 68.8293 112.044 68.8723C112.283 68.9392 112.507 69.0682 112.732 69.1829C113.281 69.4649 113.826 69.7516 114.371 70.0383C114.897 70.3107 115.427 70.5783 115.953 70.8555C116.655 71.2283 117.334 71.6679 118.065 71.9738C118.71 72.2414 119.269 72.1267 119.193 71.2522C119.131 70.5162 119.007 69.785 118.882 69.0539C118.639 67.6011 118.371 66.1483 118.127 64.6955C118.099 64.5283 118.094 64.2989 118.185 64.1794C118.457 63.8258 118.772 63.5008 119.097 63.1902C119.852 62.4638 120.622 61.7565 121.377 61.0349C121.907 60.5283 122.428 60.0074 122.954 59.4913C123.202 59.2476 123.384 58.9704 123.308 58.6024C123.241 58.2679 122.963 58.1341 122.672 58.0672C122.314 57.9859 121.946 57.9382 121.578 57.8856C120.746 57.7709 119.91 57.6658 119.073 57.5511C118.213 57.4316 117.348 57.3456 116.502 57.1688C116.144 57.0923 115.671 57.1592 115.508 56.5953C115.37 56.1317 115.074 55.716 114.854 55.2715C114.505 54.569 114.166 53.8618 113.812 53.1593C113.387 52.3182 112.976 51.4723 112.517 50.6503C112.244 50.1533 111.7 50.139 111.379 50.6025C111.121 50.9753 110.911 51.3815 110.706 51.7877C110.232 52.7148 109.778 53.6467 109.315 54.5738C108.947 55.3098 108.584 56.0505 108.197 56.7769C108.135 56.8916 107.967 56.9872 107.833 57.011C107.198 57.1353 106.558 57.2404 105.917 57.336C104.656 57.5224 103.389 57.6897 102.127 57.876C101.74 57.9334 101.344 57.9907 100.971 58.1102C100.503 58.2583 100.417 58.5355 100.531 59.0086C100.636 59.4483 100.995 59.6251 101.272 59.8975C102.538 61.1257 103.781 62.3778 105.062 63.5868C105.549 64.0456 105.822 64.4518 105.621 65.2021C105.32 66.3251 105.2 67.5007 105 68.6524C104.851 69.5174 104.694 70.3824 104.541 71.2474L104.55 71.2617ZM18.2004 71.1757C18.2052 71.84 18.4394 72.1363 18.9268 72.0885C19.161 72.0646 19.4047 71.9929 19.6198 71.883C20.2076 71.5819 20.7715 71.2378 21.3545 70.9272C22.3294 70.4159 23.3091 69.9189 24.284 69.4171C24.3604 69.3788 24.4273 69.3119 24.5086 69.2689C25.0438 68.9822 25.5408 68.6286 26.1955 69.0921C26.7212 69.4601 27.3234 69.7181 27.8968 70.0192C28.4798 70.3251 29.0629 70.6214 29.6507 70.9129C30.4105 71.2952 31.156 71.7014 31.9398 72.0311C32.4559 72.2462 32.843 71.9403 32.8095 71.3812C32.7761 70.7982 32.6805 70.2151 32.5849 69.6369C32.346 68.208 32.1214 66.7743 31.8346 65.3502C31.6913 64.6477 31.6339 64.0408 32.3364 63.6012C32.5276 63.4817 32.6709 63.2762 32.8382 63.1137C33.4834 62.4924 34.1333 61.8712 34.7784 61.2452C35.3758 60.6621 35.9445 60.0457 36.5657 59.4913C36.8477 59.238 36.9576 58.9608 36.9146 58.6263C36.8764 58.2918 36.604 58.1389 36.3029 58.0624C36.107 58.0146 35.9015 57.9859 35.7008 57.9573C34.6876 57.8187 33.6793 57.6897 32.6662 57.5511C31.8203 57.4316 30.9697 57.336 30.1333 57.164C29.7893 57.0971 29.3639 57.1305 29.1584 56.6909C28.7092 55.7446 28.217 54.8128 27.7535 53.8713C27.2421 52.8343 26.7547 51.7877 26.2146 50.765C25.9184 50.2059 25.2445 50.0052 24.8622 50.7029C24.6567 51.0804 24.4465 51.458 24.2601 51.8451C23.9064 52.5762 23.5767 53.3217 23.2231 54.0529C22.9172 54.6789 22.6209 55.3098 22.2673 55.9071C21.9853 56.3946 21.9566 57.0732 21.1156 57.1401C19.8969 57.2357 18.6927 57.4698 17.4836 57.6419C16.5756 57.7709 15.6628 57.876 14.7644 58.0576C14.5159 58.1102 14.1766 58.373 14.1288 58.5929C14.0428 59.066 14.7501 59.7016 14.8982 59.8497C15.4287 60.3897 15.9448 60.9441 16.48 61.4793C17.3498 62.3395 18.2291 63.1806 19.1084 64.0313C19.2948 64.2129 19.3713 64.3897 19.3044 64.6764C19.161 65.2833 19.0797 65.9046 18.9794 66.5211C18.8026 67.5724 18.6258 68.6286 18.4489 69.6799C18.3629 70.196 18.2769 70.7074 18.2052 71.1661L18.2004 71.1757Z" fill="#FBBD07"/>
</g>
</g>
</g>
<defs>
<clipPath id="clip0_1_1362">
<rect width="129.039" height="47.2004" fill="white" transform="translate(18.5785)"/>
</clipPath>
<clipPath id="clip1_1_1362">
<rect width="129.039" height="47.2004" fill="white" transform="translate(18.5785)"/>
</clipPath>
<clipPath id="clip2_1_1362">
<rect width="129.03" height="47.2004" fill="white" transform="translate(18.5819 0.00012207)"/>
</clipPath>
<clipPath id="clip3_1_1362">
<rect width="143.807" height="22.3892" fill="white" transform="translate(11.1943 50.0356)"/>
</clipPath>
<clipPath id="clip4_1_1362">
<rect width="143.377" height="38.2312" fill="white" transform="translate(11.4097 42.0726)"/>
</clipPath>
<clipPath id="clip5_1_1362">
<rect width="143.367" height="38.2312" fill="white" transform="translate(11.4142 42.0726)"/>
</clipPath>
</defs>
</svg>
