<svg width="411" height="350" viewBox="0 0 411 350" fill="none" xmlns="http://www.w3.org/2000/svg">
<path d="M53.3986 112.74V39.8351H42.6832V22.506H82.1608V39.8351H71.4454V112.74H53.3986Z" fill="#353639"/>
<path d="M87.5454 112.74V22.506H115.231C119.845 22.506 123.332 23.5656 125.69 25.6847C128.048 27.7697 129.621 30.7091 130.407 34.5031C131.227 38.2628 131.637 42.6891 131.637 47.7819C131.637 52.7038 131.005 56.6344 129.74 59.5739C128.51 62.5133 126.168 64.547 122.716 65.675C125.553 66.256 127.536 67.6745 128.664 69.9303C129.826 72.152 130.407 75.0402 130.407 78.5949V112.74H112.616V77.4157C112.616 74.7838 112.069 73.1603 110.976 72.5451C109.916 71.8957 108.19 71.571 105.797 71.571V112.74H87.5454ZM105.9 55.9338H110.258C112.753 55.9338 114 53.2165 114 47.7819C114 44.2614 113.727 41.9543 113.18 40.8605C112.633 39.7668 111.608 39.2199 110.104 39.2199H105.9V55.9338Z" fill="#353639"/>
<path d="M158.965 112.74C151.446 112.74 145.909 110.638 142.354 106.434C138.799 102.196 137.022 95.9753 137.022 87.7721V21.6857H154.556V87.0544C154.556 88.5583 154.642 90.0109 154.813 91.4123C154.983 92.7795 155.376 93.9074 155.992 94.7961C156.607 95.6847 157.598 96.1291 158.965 96.1291C160.367 96.1291 161.375 95.7018 161.99 94.8473C162.605 93.9587 162.981 92.8136 163.118 91.4123C163.289 90.0109 163.375 88.5583 163.375 87.0544V21.6857H180.909V87.7721C180.909 95.9753 179.131 102.196 175.577 106.434C172.022 110.638 166.485 112.74 158.965 112.74Z" fill="#353639"/>
<path d="M209.57 112.74C201.332 112.74 195.385 110.69 191.728 106.588C188.105 102.486 186.293 95.9582 186.293 87.0031V78.1847H204.135V89.464C204.135 91.549 204.443 93.1896 205.058 94.3859C205.707 95.548 206.818 96.1291 208.39 96.1291C210.031 96.1291 211.159 95.6506 211.774 94.6935C212.424 93.7365 212.748 92.1642 212.748 89.9767C212.748 87.2082 212.475 84.901 211.928 83.0553C211.381 81.1754 210.424 79.3981 209.057 77.7233C207.724 76.0143 205.861 74.0319 203.469 71.776L195.368 64.0856C189.318 58.3776 186.293 51.8493 186.293 44.5006C186.293 36.8102 188.071 30.9484 191.625 26.9152C195.214 22.882 200.392 20.8654 207.16 20.8654C215.431 20.8654 221.293 23.07 224.745 27.4792C228.232 31.8883 229.975 38.5876 229.975 47.5768H211.62V41.3732C211.62 40.1427 211.261 39.1857 210.544 38.5021C209.86 37.8185 208.92 37.4767 207.724 37.4767C206.288 37.4767 205.229 37.8869 204.545 38.7072C203.896 39.4933 203.571 40.5187 203.571 41.7834C203.571 43.048 203.913 44.4152 204.596 45.8849C205.28 47.3546 206.63 49.0465 208.647 50.9606L219.054 60.9582C221.139 62.9406 223.053 65.0426 224.797 67.2643C226.54 69.4518 227.941 72.0153 229.001 74.9547C230.06 77.86 230.59 81.4147 230.59 85.6188C230.59 94.0954 229.018 100.743 225.873 105.563C222.763 110.348 217.328 112.74 209.57 112.74Z" fill="#353639"/>
<path d="M246.69 112.74V39.8351H235.975V22.506H275.452V39.8351H264.737V112.74H246.69Z" fill="#353639"/>
<path d="M280.837 112.74V22.506H316.931V39.9377H299.191V57.5231H316.213V74.4933H299.191V95.1549H318.11V112.74H280.837Z" fill="#353639"/>
<path d="M323.494 112.74V22.506H348.309C354.803 22.506 359.691 24.3175 362.972 27.9406C366.253 31.5295 367.894 36.7931 367.894 43.7316V85.9777C367.894 94.5226 366.39 101.119 363.382 105.768C360.408 110.416 355.179 112.74 347.694 112.74H323.494ZM341.644 96.7956H344.771C348.087 96.7956 349.744 95.1891 349.744 91.9762V45.4235C349.744 42.4157 349.334 40.4845 348.514 39.63C347.728 38.7414 346.104 38.297 343.643 38.297H341.644V96.7956Z" fill="#353639"/>
<path d="M19.8163 222.452L10.1263 132.218H27.7631L32.7362 189.178L37.8119 132.218H54.6283L59.4476 189.178L64.267 132.218H82.1088L72.265 222.452H50.6293L46.1176 179.027L41.8109 222.452H19.8163Z" fill="#353639"/>
<path d="M87.4934 222.452V132.218H123.587V149.649H105.848V167.235H122.869V184.205H105.848V204.866H124.766V222.452H87.4934Z" fill="#353639"/>
<path d="M130.151 222.452V132.218H148.198V207.071H166.757V222.452H130.151Z" fill="#353639"/>
<path d="M172.142 222.452V132.218H190.189V207.071H208.749V222.452H172.142Z" fill="#353639"/>
<path d="M214.133 222.452V132.218H232.693L240.998 175.438V132.218H258.43V222.452H240.793L231.77 177.335V222.452H214.133Z" fill="#353639"/>
<path d="M263.815 222.452V132.218H299.908V149.649H282.169V167.235H299.191V184.205H282.169V204.866H301.088V222.452H263.815Z" fill="#353639"/>
<path d="M329.749 222.452C321.511 222.452 315.564 220.401 311.907 216.3C308.284 212.198 306.472 205.67 306.472 196.715V187.896H324.314V199.176C324.314 201.261 324.622 202.901 325.237 204.097C325.886 205.26 326.997 205.841 328.569 205.841C330.21 205.841 331.338 205.362 331.953 204.405C332.603 203.448 332.927 201.876 332.927 199.688C332.927 196.92 332.654 194.613 332.107 192.767C331.56 190.887 330.603 189.11 329.236 187.435C327.903 185.726 326.04 183.743 323.647 181.488L315.547 173.797C309.497 168.089 306.472 161.561 306.472 154.212C306.472 146.522 308.25 140.66 311.804 136.627C315.393 132.594 320.571 130.577 327.339 130.577C335.61 130.577 341.472 132.781 344.924 137.191C348.411 141.6 350.154 148.299 350.154 157.288H331.799V151.085C331.799 149.854 331.44 148.897 330.723 148.214C330.039 147.53 329.099 147.188 327.903 147.188C326.467 147.188 325.408 147.598 324.724 148.419C324.075 149.205 323.75 150.23 323.75 151.495C323.75 152.76 324.092 154.127 324.775 155.596C325.459 157.066 326.809 158.758 328.826 160.672L339.233 170.67C341.318 172.652 343.232 174.754 344.976 176.976C346.719 179.163 348.12 181.727 349.18 184.666C350.239 187.572 350.769 191.126 350.769 195.33C350.769 203.807 349.197 210.455 346.052 215.274C342.942 220.059 337.507 222.452 329.749 222.452Z" fill="#353639"/>
<path d="M379.43 222.452C371.193 222.452 365.245 220.401 361.588 216.3C357.965 212.198 356.154 205.67 356.154 196.715V187.896H373.995V199.176C373.995 201.261 374.303 202.901 374.918 204.097C375.568 205.26 376.678 205.841 378.251 205.841C379.891 205.841 381.019 205.362 381.635 204.405C382.284 203.448 382.609 201.876 382.609 199.688C382.609 196.92 382.335 194.613 381.788 192.767C381.241 190.887 380.284 189.11 378.917 187.435C377.584 185.726 375.721 183.743 373.329 181.488L365.228 173.797C359.178 168.089 356.154 161.561 356.154 154.212C356.154 146.522 357.931 140.66 361.486 136.627C365.074 132.594 370.253 130.577 377.02 130.577C385.292 130.577 391.154 132.781 394.606 137.191C398.092 141.6 399.835 148.299 399.835 157.288H381.481V151.085C381.481 149.854 381.122 148.897 380.404 148.214C379.72 147.53 378.781 147.188 377.584 147.188C376.149 147.188 375.089 147.598 374.406 148.419C373.756 149.205 373.431 150.23 373.431 151.495C373.431 152.76 373.773 154.127 374.457 155.596C375.14 157.066 376.49 158.758 378.507 160.672L388.915 170.67C391 172.652 392.914 174.754 394.657 176.976C396.4 179.163 397.802 181.727 398.861 184.666C399.921 187.572 400.45 191.126 400.45 195.33C400.45 203.807 398.878 210.455 395.734 215.274C392.623 220.059 387.189 222.452 379.43 222.452Z" fill="#353639"/>
<path d="M112.975 331.49C104.738 331.49 98.7903 329.44 95.1331 325.338C91.51 321.237 89.6985 314.708 89.6985 305.753V296.935H107.54V308.214C107.54 310.299 107.848 311.94 108.463 313.136C109.113 314.298 110.223 314.879 111.796 314.879C113.436 314.879 114.564 314.401 115.179 313.444C115.829 312.487 116.154 310.914 116.154 308.727C116.154 305.958 115.88 303.651 115.333 301.805C114.786 299.925 113.829 298.148 112.462 296.473C111.129 294.764 109.266 292.782 106.874 290.526L98.7732 282.836C92.7234 277.128 89.6985 270.599 89.6985 263.251C89.6985 255.56 91.4758 249.698 95.0305 245.665C98.6194 241.632 103.798 239.615 110.565 239.615C118.837 239.615 124.698 241.82 128.151 246.229C131.637 250.638 133.38 257.338 133.38 266.327H115.026V260.123C115.026 258.893 114.667 257.936 113.949 257.252C113.265 256.569 112.325 256.227 111.129 256.227C109.694 256.227 108.634 256.637 107.95 257.457C107.301 258.243 106.976 259.269 106.976 260.533C106.976 261.798 107.318 263.165 108.002 264.635C108.685 266.105 110.035 267.797 112.052 269.711L122.46 279.708C124.545 281.691 126.459 283.793 128.202 286.014C129.945 288.202 131.346 290.765 132.406 293.705C133.466 296.61 133.995 300.165 133.995 304.369C133.995 312.845 132.423 319.493 129.279 324.313C126.168 329.098 120.734 331.49 112.975 331.49Z" fill="#353639"/>
<path d="M150.095 331.49V258.585H139.38V241.256H178.858V258.585H168.142V331.49H150.095Z" fill="#353639"/>
<path d="M206.493 331.49C199.281 331.49 193.761 329.32 189.933 324.979C186.139 320.604 184.242 314.298 184.242 306.061V263.199C184.242 255.475 186.122 249.613 189.882 245.614C193.676 241.615 199.213 239.615 206.493 239.615C213.773 239.615 219.293 241.615 223.053 245.614C226.847 249.613 228.744 255.475 228.744 263.199V306.061C228.744 314.298 226.83 320.604 223.002 324.979C219.208 329.32 213.705 331.49 206.493 331.49ZM206.647 314.879C209.381 314.879 210.749 312.23 210.749 306.932V262.892C210.749 258.448 209.416 256.227 206.75 256.227C203.742 256.227 202.238 258.5 202.238 263.046V307.035C202.238 309.838 202.58 311.854 203.263 313.085C203.947 314.281 205.075 314.879 206.647 314.879Z" fill="#353639"/>
<path d="M234.129 331.49V241.256H261.814C266.429 241.256 269.915 242.316 272.273 244.435C274.632 246.52 276.204 249.459 276.99 253.253C277.811 257.013 278.221 261.439 278.221 266.532C278.221 271.454 277.588 275.384 276.324 278.324C275.093 281.263 272.752 283.297 269.3 284.425C272.137 285.006 274.119 286.424 275.247 288.68C276.409 290.902 276.99 293.79 276.99 297.345V331.49H259.2V296.166C259.2 293.534 258.653 291.91 257.559 291.295C256.5 290.646 254.773 290.321 252.381 290.321V331.49H234.129ZM252.483 274.684H256.841C259.336 274.684 260.584 271.966 260.584 266.532C260.584 263.011 260.311 260.704 259.764 259.611C259.217 258.517 258.191 257.97 256.688 257.97H252.483V274.684Z" fill="#353639"/>
<path d="M283.605 331.49V241.256H319.699V258.688H301.96V276.273H318.981V293.243H301.96V313.905H320.878V331.49H283.605Z" fill="#353639"/>
</svg>
