<svg width="17" height="17" viewBox="0 0 17 17" fill="none" xmlns="http://www.w3.org/2000/svg">
<path d="M6.02109 2.625C5.40859 2.625 4.84258 2.77812 4.32305 3.08437C3.80352 3.39062 3.39063 3.80351 3.08438 4.32305C2.77813 4.84258 2.625 5.40859 2.625 6.02109V10.7789C2.625 11.3914 2.77813 11.9574 3.08438 12.477C3.39063 12.9965 3.80352 13.4094 4.32305 13.7156C4.84258 14.0219 5.40859 14.175 6.02109 14.175H10.7789C11.3914 14.175 11.9574 14.0219 12.477 13.7156C12.9965 13.4094 13.4094 12.9965 13.7156 12.477C14.0219 11.9574 14.175 11.3914 14.175 10.7789V6.02109C14.175 5.40859 14.0219 4.84258 13.7156 4.32305C13.4094 3.80351 12.9965 3.39062 12.477 3.08437C11.9574 2.77812 11.3914 2.625 10.7789 2.625H6.02109ZM6.02109 3.675H10.7789C11.2055 3.675 11.5992 3.7789 11.9602 3.98672C12.3211 4.19453 12.6055 4.4789 12.8133 4.83984C13.0211 5.20078 13.125 5.59453 13.125 6.02109V10.7789C13.125 11.2055 13.0211 11.5992 12.8133 11.9602C12.6055 12.3211 12.3211 12.6055 11.9602 12.8133C11.5992 13.0211 11.2055 13.125 10.7789 13.125H6.02109C5.59453 13.125 5.20078 13.0211 4.83984 12.8133C4.47891 12.6055 4.19453 12.3211 3.98672 11.9602C3.77891 11.5992 3.675 11.2055 3.675 10.7789V6.02109C3.675 5.59453 3.77891 5.20078 3.98672 4.83984C4.19453 4.4789 4.47891 4.19453 4.83984 3.98672C5.20078 3.7789 5.59453 3.675 6.02109 3.675ZM11.5008 4.82344C11.3695 4.82344 11.2574 4.86992 11.1645 4.96289C11.0715 5.05586 11.025 5.16797 11.025 5.29922C11.025 5.43047 11.0715 5.54258 11.1645 5.63555C11.2574 5.72851 11.3695 5.775 11.5008 5.775C11.632 5.775 11.7441 5.72851 11.8371 5.63555C11.9301 5.54258 11.9766 5.43047 11.9766 5.29922C11.9766 5.16797 11.9301 5.05586 11.8371 4.96289C11.7441 4.86992 11.632 4.82344 11.5008 4.82344ZM8.4 5.25C7.83125 5.25 7.30625 5.39219 6.825 5.67656C6.34375 5.96094 5.96094 6.34375 5.67656 6.825C5.39219 7.30625 5.25 7.83125 5.25 8.4C5.25 8.96875 5.39219 9.49375 5.67656 9.975C5.96094 10.4562 6.34375 10.8391 6.825 11.1234C7.30625 11.4078 7.83125 11.55 8.4 11.55C8.96875 11.55 9.49375 11.4078 9.975 11.1234C10.4563 10.8391 10.8391 10.4562 11.1234 9.975C11.4078 9.49375 11.55 8.96875 11.55 8.4C11.55 7.83125 11.4078 7.30625 11.1234 6.825C10.8391 6.34375 10.4563 5.96094 9.975 5.67656C9.49375 5.39219 8.96875 5.25 8.4 5.25ZM8.4 6.3C8.78281 6.3 9.13555 6.39297 9.4582 6.57891C9.78086 6.76484 10.0352 7.01914 10.2211 7.3418C10.407 7.66445 10.5 8.01719 10.5 8.4C10.5 8.78281 10.407 9.13555 10.2211 9.4582C10.0352 9.78086 9.78086 10.0352 9.4582 10.2211C9.13555 10.407 8.78281 10.5 8.4 10.5C8.01719 10.5 7.66445 10.407 7.3418 10.2211C7.01914 10.0352 6.76484 9.78086 6.57891 9.4582C6.39297 9.13555 6.3 8.78281 6.3 8.4C6.3 8.01719 6.39297 7.66445 6.57891 7.3418C6.76484 7.01914 7.01914 6.76484 7.3418 6.57891C7.66445 6.39297 8.01719 6.3 8.4 6.3Z" fill="white"/>
</svg>
