<svg width="26" height="26" viewBox="0 0 26 26" fill="none" xmlns="http://www.w3.org/2000/svg">
<path d="M17.325 2.26318C16.4719 2.26318 15.6844 2.47646 14.9625 2.90303C14.2406 3.32959 13.6664 3.90381 13.2398 4.62568C12.8133 5.34756 12.6 6.13506 12.6 6.98818C12.6 7.34912 12.6656 7.74287 12.7969 8.16943C12.8953 8.51396 13.0594 8.94053 13.2891 9.44912C13.65 10.2858 14.1094 11.18 14.6672 12.1315C15.3398 13.28 16.0125 14.3382 16.6852 15.3062L17.325 16.2413L18.6047 14.371C19.1133 13.5999 19.5727 12.8534 19.9828 12.1315C20.5406 11.18 21 10.2858 21.3609 9.44912C21.5906 8.94053 21.7547 8.51396 21.8531 8.16943C21.9844 7.74287 22.05 7.34912 22.05 6.98818C22.05 6.13506 21.8367 5.34756 21.4102 4.62568C20.9836 3.90381 20.4094 3.32959 19.6875 2.90303C18.9656 2.47646 18.1781 2.26318 17.325 2.26318ZM9.42539 3.78897L3.15 6.47139V21.5815L9.47461 18.8499L15.7746 21.2124L22.05 18.53V11.664C21.6398 12.4515 21.1148 13.3538 20.475 14.371V17.4964L16.5375 19.1698V17.8901L14.9625 15.6015V19.2437L10.2375 17.4718V5.75771L11.0988 6.07764C11.1809 5.53623 11.3203 5.02764 11.5172 4.55186L9.42539 3.78897ZM17.325 3.83818C17.8992 3.83818 18.4283 3.97764 18.9123 4.25654C19.3963 4.53545 19.7777 4.91689 20.0566 5.40088C20.3355 5.88486 20.475 6.41396 20.475 6.98818C20.475 7.15225 20.4258 7.40244 20.3273 7.73877C20.2289 8.0751 20.0977 8.43193 19.9336 8.80928C19.6383 9.48193 19.1953 10.3269 18.6047 11.344C18.2273 11.9839 17.8418 12.5991 17.448 13.1897L17.325 13.3866L17.202 13.1897C16.8082 12.5991 16.4227 11.9839 16.0453 11.344C15.4547 10.3269 15.0117 9.48193 14.7164 8.80928C14.5523 8.43193 14.4211 8.0751 14.3227 7.73877C14.2242 7.40244 14.175 7.15225 14.175 6.98818C14.175 6.41396 14.3145 5.88486 14.5934 5.40088C14.8723 4.91689 15.2537 4.53545 15.7377 4.25654C16.2217 3.97764 16.7508 3.83818 17.325 3.83818ZM8.6625 5.80693V17.4964L4.725 19.1698V7.50498L8.6625 5.80693ZM17.325 5.80693C16.9969 5.80693 16.718 5.92178 16.4883 6.15146C16.2586 6.38115 16.1438 6.66006 16.1438 6.98818C16.1438 7.31631 16.2586 7.59521 16.4883 7.8249C16.718 8.05459 16.9969 8.16943 17.325 8.16943C17.6531 8.16943 17.932 8.05459 18.1617 7.8249C18.3914 7.59521 18.5063 7.31631 18.5063 6.98818C18.5063 6.66006 18.3914 6.38115 18.1617 6.15146C17.932 5.92178 17.6531 5.80693 17.325 5.80693Z" fill="#1DA7FB"/>
</svg>
