<svg width="168" height="38" viewBox="0 0 168 38" fill="none" xmlns="http://www.w3.org/2000/svg">
<path d="M30.4502 0C32.7697 0.000103778 34.6504 1.88066 34.6504 4.2002V20.8896C34.3781 20.6019 34.0789 20.3503 33.751 20.1367C32.8283 19.4996 31.6853 19.1807 30.3232 19.1807H30.0928C28.7526 19.1807 27.6209 19.4996 26.6982 20.1367C25.7756 20.7519 25.0731 21.675 24.5898 22.9053C24.5673 22.9654 24.5478 23.0272 24.5264 23.0889C24.5038 23.0271 24.4817 22.9656 24.458 22.9053C23.9967 21.6751 23.3044 20.7519 22.3818 20.1367C21.4811 19.4996 20.3494 19.1807 18.9873 19.1807H18.7568C17.4167 19.1807 16.285 19.4996 15.3623 20.1367C14.4396 20.7519 13.7475 21.675 13.2861 22.9053C13.1258 23.3328 12.9952 23.7979 12.8906 24.2998V19.7412H8.70605V37.7998H0V0H30.4502ZM17.0762 23.8936C17.9988 23.8936 18.7125 24.2013 19.2178 24.8164C19.745 25.4315 20.0088 26.2332 20.0088 27.2217V37.7998H13.9785V27.3203C13.9786 26.2882 14.2528 25.4646 14.8018 24.8496C15.351 24.2125 16.1095 23.8936 17.0762 23.8936ZM28.3789 23.8936C29.3236 23.8936 30.0484 24.2013 30.5537 24.8164C31.0809 25.4315 31.3447 26.2331 31.3447 27.2217V37.7998H25.3145V27.3203C25.3145 26.288 25.5895 25.4647 26.1387 24.8496C26.6879 24.2125 27.4343 23.8936 28.3789 23.8936Z" fill="#1DA7FB"/>
<path d="M44.89 26.8999V13.0903H48.0904V19.0375H47.8636C47.8636 17.6263 48.04 16.4503 48.3928 15.5095C48.7456 14.5687 49.2748 13.8631 49.9804 13.3927C50.686 12.9055 51.5512 12.6619 52.576 12.6619H52.7524C53.794 12.6619 54.6592 12.9055 55.348 13.3927C56.0536 13.8631 56.5828 14.5687 56.9356 15.5095C57.3052 16.4503 57.49 17.6263 57.49 19.0375H56.5072C56.5072 17.6263 56.6836 16.4503 57.0364 15.5095C57.406 14.5687 57.9436 13.8631 58.6492 13.3927C59.3548 12.9055 60.22 12.6619 61.2448 12.6619H61.4212C62.4628 12.6619 63.3364 12.9055 64.042 13.3927C64.7644 13.8631 65.3104 14.5687 65.68 15.5095C66.0496 16.4503 66.2344 17.6263 66.2344 19.0375V26.8999H62.2024V18.8107C62.2024 18.0547 62.0008 17.4415 61.5976 16.9711C61.2112 16.5007 60.6568 16.2655 59.9344 16.2655C59.212 16.2655 58.6408 16.5091 58.2208 16.9963C57.8008 17.4667 57.5908 18.0967 57.5908 18.8863V26.8999H53.5336V18.8107C53.5336 18.0547 53.332 17.4415 52.9288 16.9711C52.5424 16.5007 51.9964 16.2655 51.2908 16.2655C50.5516 16.2655 49.972 16.5091 49.552 16.9963C49.132 17.4667 48.922 18.0967 48.922 18.8863V26.8999H44.89ZM75.4718 27.3787C74.2958 27.3787 73.2542 27.1771 72.347 26.7739C71.4566 26.3707 70.709 25.8331 70.1042 25.1611C69.5162 24.4723 69.0626 23.7079 68.7434 22.8679C68.441 22.0111 68.2898 21.1375 68.2898 20.2471V19.7431C68.2898 18.8191 68.441 17.9371 68.7434 17.0971C69.0626 16.2403 69.5162 15.4759 70.1042 14.8039C70.6922 14.1319 71.423 13.6027 72.2966 13.2163C73.187 12.8131 74.195 12.6115 75.3206 12.6115C76.799 12.6115 78.0422 12.9475 79.0502 13.6195C80.075 14.2747 80.8562 15.1399 81.3938 16.2151C81.9314 17.2735 82.2002 18.4327 82.2002 19.6927V21.0535H69.9782V18.7603H79.7558L78.4454 19.8187C78.4454 18.9955 78.3278 18.2899 78.0926 17.7019C77.8574 17.1139 77.5046 16.6687 77.0342 16.3663C76.5806 16.0471 76.0094 15.8875 75.3206 15.8875C74.615 15.8875 74.0186 16.0471 73.5314 16.3663C73.0442 16.6855 72.6746 17.1559 72.4226 17.7775C72.1706 18.3823 72.0446 19.1299 72.0446 20.0203C72.0446 20.8435 72.1622 21.5659 72.3974 22.1875C72.6326 22.7923 73.0022 23.2627 73.5062 23.5987C74.0102 23.9347 74.6654 24.1027 75.4718 24.1027C76.211 24.1027 76.8158 23.9599 77.2862 23.6743C77.7566 23.3887 78.0758 23.0359 78.2438 22.6159H81.9482C81.7466 23.5399 81.3518 24.3631 80.7638 25.0855C80.1758 25.8079 79.4366 26.3707 78.5462 26.7739C77.6558 27.1771 76.631 27.3787 75.4718 27.3787ZM90.0422 27.3535C89.0678 27.3535 88.1774 27.1771 87.371 26.8243C86.5814 26.4715 85.8926 25.9843 85.3046 25.3627C84.7166 24.7243 84.263 23.9767 83.9438 23.1199C83.6414 22.2631 83.4902 21.3391 83.4902 20.3479V19.7683C83.4902 18.7771 83.633 17.8531 83.9186 16.9963C84.221 16.1395 84.6494 15.3919 85.2038 14.7535C85.775 14.0983 86.4554 13.5943 87.245 13.2415C88.0346 12.8719 88.9166 12.6871 89.891 12.6871C90.9998 12.6871 91.9574 12.9307 92.7638 13.4179C93.5702 13.8883 94.2002 14.5939 94.6538 15.5347C95.1074 16.4587 95.3594 17.6011 95.4098 18.9619L94.3514 17.9791V8.5039H98.4086V26.8999H95.2082V21.1795H95.7626C95.7122 22.4899 95.435 23.6071 94.931 24.5311C94.4438 25.4551 93.7802 26.1607 92.9402 26.6479C92.1002 27.1183 91.1342 27.3535 90.0422 27.3535ZM91.0502 23.9767C91.6718 23.9767 92.2346 23.8423 92.7386 23.5735C93.2594 23.2879 93.671 22.8763 93.9734 22.3387C94.2926 21.8011 94.4522 21.1543 94.4522 20.3983V19.4659C94.4522 18.7267 94.2926 18.1051 93.9734 17.6011C93.6542 17.0971 93.2342 16.7107 92.7134 16.4419C92.1926 16.1731 91.6298 16.0387 91.025 16.0387C90.353 16.0387 89.7482 16.2151 89.2106 16.5679C88.6898 16.9039 88.2782 17.3743 87.9758 17.9791C87.6734 18.5671 87.5222 19.2559 87.5222 20.0455C87.5222 20.8519 87.6734 21.5491 87.9758 22.1371C88.2782 22.7251 88.6982 23.1787 89.2358 23.4979C89.7734 23.8171 90.3782 23.9767 91.0502 23.9767ZM101.541 26.8999V13.0903H104.741V19.0375H104.514C104.514 17.6263 104.691 16.4503 105.044 15.5095C105.396 14.5687 105.926 13.8631 106.631 13.3927C107.337 12.9055 108.202 12.6619 109.227 12.6619H109.403C110.445 12.6619 111.31 12.9055 111.999 13.3927C112.704 13.8631 113.234 14.5687 113.586 15.5095C113.956 16.4503 114.141 17.6263 114.141 19.0375H113.158C113.158 17.6263 113.334 16.4503 113.687 15.5095C114.057 14.5687 114.594 13.8631 115.3 13.3927C116.006 12.9055 116.871 12.6619 117.896 12.6619H118.072C119.114 12.6619 119.987 12.9055 120.693 13.3927C121.415 13.8631 121.961 14.5687 122.331 15.5095C122.7 16.4503 122.885 17.6263 122.885 19.0375V26.8999H118.853V18.8107C118.853 18.0547 118.652 17.4415 118.248 16.9711C117.862 16.5007 117.308 16.2655 116.585 16.2655C115.863 16.2655 115.292 16.5091 114.872 16.9963C114.452 17.4667 114.242 18.0967 114.242 18.8863V26.8999H110.184V18.8107C110.184 18.0547 109.983 17.4415 109.58 16.9711C109.193 16.5007 108.647 16.2655 107.942 16.2655C107.202 16.2655 106.623 16.5091 106.203 16.9963C105.783 17.4667 105.573 18.0967 105.573 18.8863V26.8999H101.541ZM134.139 26.8999V22.8175H133.458V18.3823C133.458 17.6767 133.29 17.1475 132.954 16.7947C132.618 16.4419 132.081 16.2655 131.341 16.2655C130.972 16.2655 130.485 16.2739 129.88 16.2907C129.275 16.3075 128.653 16.3327 128.015 16.3663C127.377 16.3999 126.797 16.4335 126.276 16.4671V13.0651C126.663 13.0315 127.116 12.9979 127.637 12.9643C128.158 12.9307 128.695 12.9055 129.25 12.8887C129.804 12.8719 130.325 12.8635 130.812 12.8635C132.223 12.8635 133.408 13.0651 134.365 13.4683C135.34 13.8715 136.079 14.4847 136.583 15.3079C137.087 16.1143 137.339 17.1559 137.339 18.4327V26.8999H134.139ZM129.729 27.2527C128.737 27.2527 127.864 27.0763 127.108 26.7235C126.369 26.3707 125.789 25.8667 125.369 25.2115C124.949 24.5395 124.739 23.7415 124.739 22.8175C124.739 21.8095 124.999 20.9863 125.52 20.3479C126.041 19.6927 126.772 19.2139 127.713 18.9115C128.653 18.5923 129.737 18.4327 130.963 18.4327H133.912V20.6755H130.938C130.233 20.6755 129.687 20.8519 129.3 21.2047C128.931 21.5407 128.746 22.0027 128.746 22.5907C128.746 23.1451 128.931 23.5987 129.3 23.9515C129.687 24.2875 130.233 24.4555 130.938 24.4555C131.392 24.4555 131.795 24.3799 132.148 24.2287C132.517 24.0607 132.82 23.7835 133.055 23.3971C133.29 23.0107 133.425 22.4731 133.458 21.7843L134.416 22.7923C134.332 23.7499 134.097 24.5563 133.71 25.2115C133.341 25.8667 132.82 26.3707 132.148 26.7235C131.493 27.0763 130.686 27.2527 129.729 27.2527ZM140.235 26.8999V13.0903H143.435V19.0123H143.36C143.36 17.0635 143.771 15.5599 144.595 14.5015C145.435 13.4431 146.644 12.9139 148.223 12.9139H148.753V16.3915H147.745C146.636 16.3915 145.779 16.6939 145.174 17.2987C144.569 17.8867 144.267 18.7435 144.267 19.8691V26.8999H140.235ZM156.911 27.0763C155.517 27.0763 154.391 26.9083 153.534 26.5723C152.678 26.2195 152.048 25.6399 151.644 24.8335C151.258 24.0103 151.065 22.9015 151.065 21.5071V9.3607H154.82V21.6583C154.82 22.3135 154.988 22.8175 155.324 23.1703C155.676 23.5063 156.172 23.6743 156.81 23.6743H158.852V27.0763H156.911ZM148.973 16.0387V13.0903H158.852V16.0387H148.973Z" fill="#353639"/>
<path d="M160.408 26.8999V22.3891H164.843V26.8999H160.408Z" fill="#1DA7FB"/>
</svg>
