<svg width="32" height="34" viewBox="0 0 32 34" fill="none" xmlns="http://www.w3.org/2000/svg">
<path d="M15.75 4.92188C14.499 4.92188 13.3455 5.2295 12.2893 5.84473C11.2332 6.45996 10.3975 7.29566 9.78223 8.35181C9.16699 9.40796 8.85938 10.5615 8.85938 11.8125C8.85938 12.9814 9.1311 14.0684 9.67456 15.0732C10.218 16.0781 10.9614 16.8984 11.9048 17.5342C10.7358 18.0469 9.69507 18.7544 8.78247 19.6567C7.86987 20.5591 7.16748 21.5947 6.67529 22.7637C6.1626 23.9736 5.90625 25.2451 5.90625 26.5781H7.875C7.875 25.1426 8.22876 23.825 8.93628 22.6252C9.6438 21.4255 10.5974 20.4719 11.7971 19.7644C12.9968 19.0569 14.3145 18.7031 15.75 18.7031C17.1855 18.7031 18.5032 19.0569 19.7029 19.7644C20.9026 20.4719 21.8562 21.4255 22.5637 22.6252C23.2712 23.825 23.625 25.1426 23.625 26.5781H25.5938C25.5938 25.2451 25.3374 23.9736 24.8247 22.7637C24.3325 21.5947 23.6301 20.5591 22.7175 19.6567C21.8049 18.7544 20.7642 18.0469 19.5952 17.5342C20.5386 16.8984 21.282 16.0781 21.8254 15.0732C22.3689 14.0684 22.6406 12.9814 22.6406 11.8125C22.6406 10.5615 22.333 9.40796 21.7178 8.35181C21.1025 7.29566 20.2668 6.45996 19.2107 5.84473C18.1545 5.2295 17.001 4.92188 15.75 4.92188ZM15.75 6.89063C16.6523 6.89063 17.4778 7.11109 18.2263 7.55201C18.9749 7.99292 19.5696 8.58765 20.0105 9.33619C20.4514 10.0847 20.6719 10.9102 20.6719 11.8125C20.6719 12.7148 20.4514 13.5403 20.0105 14.2888C19.5696 15.0374 18.9749 15.6321 18.2263 16.073C17.4778 16.5139 16.6523 16.7344 15.75 16.7344C14.8477 16.7344 14.0222 16.5139 13.2737 16.073C12.5251 15.6321 11.9304 15.0374 11.4895 14.2888C11.0486 13.5403 10.8281 12.7148 10.8281 11.8125C10.8281 10.9102 11.0486 10.0847 11.4895 9.33619C11.9304 8.58765 12.5251 7.99292 13.2737 7.55201C14.0222 7.11109 14.8477 6.89063 15.75 6.89063Z" fill="#353639"/>
</svg>
