<svg width="26" height="26" viewBox="0 0 26 26" fill="none" xmlns="http://www.w3.org/2000/svg">
<path d="M14.9625 0.000391006V1.57539C16.5211 1.57539 17.9812 1.96914 19.343 2.75664C20.6391 3.52773 21.6727 4.56133 22.4437 5.85742C23.2312 7.21914 23.625 8.6793 23.625 10.2379H25.2C25.2 8.38398 24.7324 6.66133 23.7973 5.06992C22.8949 3.52773 21.6727 2.30547 20.1305 1.40313C18.5391 0.46797 16.8164 0.000391006 14.9625 0.000391006ZM6.81679 2.36289C6.37383 2.36289 5.98828 2.50234 5.66015 2.78125L3.12539 5.36523L3.19922 5.31602C2.78906 5.66055 2.52246 6.08711 2.39941 6.5957C2.27636 7.1043 2.30507 7.59649 2.48554 8.07227C2.94492 9.35195 3.56015 10.6645 4.33125 12.0098C5.41406 13.8637 6.70195 15.5289 8.19492 17.0055C10.5902 19.4172 13.568 21.3203 17.1281 22.7148H17.1527C17.6285 22.8789 18.1084 22.9117 18.5924 22.8133C19.0764 22.7148 19.507 22.5016 19.8844 22.1734L22.3699 19.6879C22.698 19.3598 22.8621 18.9537 22.8621 18.4697C22.8621 17.9857 22.698 17.5797 22.3699 17.2516L19.1461 14.0031C18.818 13.675 18.4078 13.5109 17.9156 13.5109C17.4234 13.5109 17.0133 13.675 16.6852 14.0031L15.1348 15.5781C13.8879 14.9875 12.8051 14.2533 11.8863 13.3756C10.9676 12.4979 10.2375 11.4273 9.69609 10.1641L11.2711 8.58906C11.6156 8.22813 11.7879 7.79746 11.7879 7.29707C11.7879 6.79668 11.591 6.39062 11.1973 6.07891L11.2711 6.15273L7.97343 2.78125C7.64531 2.50234 7.25976 2.36289 6.81679 2.36289ZM14.9625 3.15039V4.72539C15.9633 4.72539 16.8861 4.97149 17.7311 5.46367C18.576 5.95586 19.2445 6.62441 19.7367 7.46934C20.2289 8.31426 20.475 9.23711 20.475 10.2379H22.05C22.05 8.9582 21.7301 7.76875 21.0902 6.66953C20.4504 5.60313 19.5973 4.75 18.5309 4.11016C17.4316 3.47031 16.2422 3.15039 14.9625 3.15039ZM6.81679 3.93789C6.86601 3.93789 6.92343 3.9625 6.98906 4.01172L10.2129 7.30938C10.2293 7.375 10.2129 7.43242 10.1637 7.48164L7.82578 9.79492L7.99804 10.2871L8.31797 10.9762C8.58047 11.534 8.88398 12.0754 9.22851 12.6004C9.70429 13.3387 10.2293 13.9703 10.8035 14.4953C11.5746 15.25 12.5016 15.9391 13.5844 16.5625C14.1258 16.8742 14.5852 17.1039 14.9625 17.2516L15.4547 17.473L17.8418 15.0859C17.8746 15.0531 17.8992 15.0367 17.9156 15.0367C17.932 15.0367 17.9566 15.0531 17.9894 15.0859L21.3117 18.4082C21.3445 18.441 21.3609 18.4615 21.3609 18.4697C21.3609 18.4779 21.3445 18.4984 21.3117 18.5312L18.8508 20.9676C18.4898 21.2793 18.0961 21.3613 17.6695 21.2137C14.3227 19.9176 11.5336 18.1457 9.30234 15.898C7.92422 14.5199 6.71836 12.9531 5.68476 11.1977C4.94648 9.93438 4.37226 8.71211 3.96211 7.53086V7.50625C3.89648 7.35859 3.88828 7.18223 3.9375 6.97715C3.98672 6.77207 4.07695 6.61211 4.2082 6.49727L6.64453 4.01172C6.69375 3.9625 6.75117 3.93789 6.81679 3.93789ZM14.9625 6.30039V7.87539C15.6187 7.87539 16.1766 8.10508 16.6359 8.56445C17.0953 9.02383 17.325 9.58164 17.325 10.2379H18.9C18.9 9.53242 18.7236 8.87617 18.3709 8.26914C18.0182 7.66211 17.5383 7.18223 16.9312 6.82949C16.3242 6.47676 15.668 6.30039 14.9625 6.30039Z" fill="#1DA7FB"/>
</svg>
