<svg width="17" height="17" viewBox="0 0 17 17" fill="none" xmlns="http://www.w3.org/2000/svg">
<path d="M8.44924 2.0998C7.54143 2.0998 6.68284 2.29121 5.87346 2.67402C5.06409 3.05684 4.41877 3.5873 3.93752 4.26543C3.41252 4.99824 3.15002 5.82949 3.15002 6.75918C3.15002 7.32793 3.24846 7.84199 3.44534 8.30137C3.6094 8.70605 3.82815 9.03418 4.10159 9.28574C4.34221 9.50449 4.57737 9.61387 4.80706 9.61387C4.91643 9.61387 5.01487 9.48809 5.10237 9.23652C5.16799 9.02871 5.20081 8.84824 5.20081 8.69512C5.20081 8.64043 5.15159 8.53105 5.05315 8.36699C4.91096 8.1373 4.81252 7.9459 4.75784 7.79277C4.64846 7.51934 4.59377 7.23496 4.59377 6.93965C4.59377 6.25059 4.75237 5.63535 5.06956 5.09394C5.38674 4.55254 5.82424 4.12871 6.38206 3.82246C6.93987 3.51621 7.55784 3.36309 8.23596 3.36309C9.15471 3.36309 9.88753 3.60918 10.4344 4.10137C11.025 4.61543 11.3203 5.3209 11.3203 6.21777C11.3203 6.76465 11.2492 7.31152 11.1071 7.8584C10.943 8.53652 10.6969 9.07246 10.3688 9.46621C9.98596 9.94746 9.52112 10.1881 8.97424 10.1881C8.64612 10.1881 8.36448 10.0814 8.12932 9.86816C7.89417 9.65488 7.77659 9.38418 7.77659 9.05605C7.77659 8.8373 7.8094 8.59121 7.87502 8.31777C7.90784 8.16465 7.9762 7.92402 8.0801 7.5959C8.18401 7.26777 8.25784 7.02168 8.30159 6.85762C8.36721 6.58418 8.40002 6.33262 8.40002 6.10293C8.40002 5.69824 8.27424 5.39199 8.02268 5.18418C7.80393 5.00918 7.53323 4.95449 7.21057 5.02012C6.88792 5.08574 6.61174 5.26074 6.38206 5.54512C6.14143 5.87324 6.02112 6.2834 6.02112 6.77559C6.02112 7.31152 6.10315 7.74902 6.26721 8.08809L6.08674 8.85918C5.82424 9.94199 5.63831 10.7678 5.52893 11.3365C5.34299 12.31 5.25002 13.092 5.25002 13.6826C5.25002 13.9232 5.27737 14.2896 5.33206 14.7818L5.36487 15.1428L5.39768 15.192C5.41956 15.2139 5.43323 15.2248 5.4387 15.2248C5.44417 15.2248 5.46331 15.2193 5.49612 15.2084L5.54534 15.192C5.8844 14.7326 6.14143 14.3279 6.31643 13.9779C6.49143 13.6607 6.63362 13.3217 6.74299 12.9607C6.80862 12.7311 6.90706 12.3428 7.03831 11.7959C7.14768 11.2818 7.24612 10.8607 7.33362 10.5326C7.47581 10.8279 7.73284 11.0631 8.10471 11.2381C8.43284 11.3912 8.7719 11.4678 9.1219 11.4678C9.9969 11.4678 10.7516 11.2053 11.386 10.6803C11.9547 10.2209 12.3922 9.58105 12.6985 8.76074C12.9828 8.01699 13.125 7.22402 13.125 6.38184C13.125 5.53965 12.9008 4.78496 12.4524 4.11777C12.0367 3.4834 11.4707 2.98848 10.7543 2.63301C10.0379 2.27754 9.26956 2.0998 8.44924 2.0998Z" fill="white"/>
</svg>
