<svg width="32" height="34" viewBox="0 0 32 34" fill="none" xmlns="http://www.w3.org/2000/svg">
<path d="M2.95312 12.7969C2.95312 14.5811 3.4043 16.2319 4.30664 17.7495C5.16797 19.2466 6.34717 20.4258 7.84424 21.2871C9.36182 22.1895 11.0127 22.6406 12.7969 22.6406C13.9658 22.6406 15.0784 22.4458 16.1345 22.0562C17.1907 21.6665 18.1494 21.1231 19.0107 20.4258L26.855 28.27L28.27 26.855L20.4258 19.0107C21.123 18.1494 21.6665 17.1907 22.0562 16.1345C22.4458 15.0784 22.6406 13.9658 22.6406 12.7969C22.6406 11.0127 22.1895 9.36182 21.2871 7.84424C20.4258 6.34717 19.2466 5.16797 17.7495 4.30664C16.2319 3.4043 14.5811 2.95313 12.7969 2.95313C11.0127 2.95313 9.36182 3.4043 7.84424 4.30664C6.34717 5.16797 5.16797 6.34717 4.30664 7.84424C3.4043 9.36182 2.95312 11.0127 2.95312 12.7969ZM4.92188 12.7969C4.92188 11.3613 5.27563 10.0437 5.98315 8.844C6.69067 7.64429 7.64429 6.69068 8.84399 5.98316C10.0437 5.27564 11.3613 4.92188 12.7969 4.92188C14.2324 4.92188 15.55 5.27564 16.7498 5.98316C17.9495 6.69068 18.9031 7.64429 19.6106 8.844C20.3181 10.0437 20.6719 11.3613 20.6719 12.7969C20.6719 14.2324 20.3181 15.5501 19.6106 16.7498C18.9031 17.9495 17.9495 18.9031 16.7498 19.6106C15.55 20.3181 14.2324 20.6719 12.7969 20.6719C11.3613 20.6719 10.0437 20.3181 8.84399 19.6106C7.64429 18.9031 6.69067 17.9495 5.98315 16.7498C5.27563 15.5501 4.92188 14.2324 4.92188 12.7969Z" fill="#353639"/>
</svg>
