<svg width="160" height="93" viewBox="0 0 160 93" fill="none" xmlns="http://www.w3.org/2000/svg">
<g clip-path="url(#clip0_1_1322)">
<g clip-path="url(#clip1_1_1322)">
<g clip-path="url(#clip2_1_1322)">
<path d="M41.8842 13.8582H58.0129V16.8722H51.6784V33.7826H48.1906V16.8722H41.8842V13.8582ZM57.3156 19.3549H60.3015V22.1454H60.3578C60.4505 21.7546 60.6319 21.3736 60.9018 21.0011C61.1717 20.6285 61.4965 20.2897 61.8788 19.9819C62.2598 19.6754 62.6829 19.428 63.1483 19.2424C63.6136 19.0569 64.0873 18.9641 64.5709 18.9641C64.9435 18.9641 65.1993 18.9739 65.3385 18.9922C65.4777 19.0105 65.6225 19.0302 65.7715 19.0484V22.1173C65.548 22.0807 65.3202 22.047 65.0883 22.0189C64.8549 21.9908 64.6272 21.9767 64.405 21.9767C63.8652 21.9767 63.3591 22.0835 62.884 22.2972C62.4102 22.5109 61.9955 22.8272 61.6427 23.2461C61.2884 23.6651 61.01 24.181 60.8048 24.7953C60.5996 25.4097 60.4983 26.1168 60.4983 26.9167V33.7812H57.317V19.3549H57.3156ZM80.3693 33.7812H77.2442V31.7723H77.188C76.7972 32.4977 76.2152 33.0797 75.4434 33.5169C74.6716 33.9541 73.8858 34.1734 73.0859 34.1734C71.188 34.1734 69.816 33.7039 68.9697 32.7648C68.1234 31.8257 67.7002 30.4073 67.7002 28.5095V19.3563H70.8816V28.2016C70.8816 29.4668 71.1234 30.3595 71.607 30.881C72.0906 31.4026 72.7695 31.6627 73.644 31.6627C74.3131 31.6627 74.8712 31.56 75.3183 31.3562C75.7653 31.1524 76.128 30.8768 76.4063 30.5324C76.6861 30.188 76.8857 29.7747 77.0066 29.2911C77.1275 28.8075 77.188 28.2859 77.188 27.7278V19.3563H80.3693V33.7826V33.7812ZM85.783 29.1491C85.8758 30.0797 86.2301 30.7306 86.843 31.1031C87.4573 31.4757 88.1912 31.6613 89.0473 31.6613C89.3453 31.6613 89.6841 31.6388 90.0665 31.591C90.4475 31.5446 90.8059 31.456 91.1405 31.3253C91.4751 31.1959 91.7492 31.0047 91.9643 30.7531C92.178 30.5015 92.275 30.1725 92.2567 29.762C92.2385 29.3529 92.0894 29.0183 91.8097 28.7569C91.5299 28.4968 91.1715 28.2873 90.7357 28.1285C90.2985 27.971 89.8008 27.8361 89.2427 27.7236C88.6846 27.6126 88.1167 27.4917 87.5403 27.3609C86.9442 27.2316 86.3721 27.0727 85.8238 26.8858C85.2755 26.7002 84.7821 26.4486 84.3449 26.1322C83.9077 25.8159 83.5591 25.4111 83.299 24.919C83.0389 24.427 82.9082 23.8169 82.9082 23.0915C82.9082 22.3099 83.0994 21.6548 83.4803 21.1248C83.8613 20.5948 84.3449 20.1674 84.9311 19.8413C85.5173 19.5166 86.1682 19.2874 86.8838 19.1581C87.5993 19.0287 88.2839 18.9627 88.9348 18.9627C89.6785 18.9627 90.3898 19.0414 91.0702 19.2003C91.7492 19.3591 92.3636 19.615 92.9118 19.9678C93.4601 20.3221 93.917 20.7818 94.2797 21.3497C94.6424 21.9177 94.8701 22.6009 94.9629 23.4008H91.6424C91.4934 22.6388 91.1447 22.1271 90.5965 21.8656C90.0468 21.6056 89.4198 21.4748 88.7127 21.4748C88.4892 21.4748 88.2249 21.4931 87.917 21.5311C87.6106 21.569 87.321 21.6379 87.0525 21.7405C86.7825 21.8432 86.5548 21.9922 86.3692 22.1876C86.1837 22.383 86.0895 22.6388 86.0895 22.9551C86.0895 23.346 86.2244 23.6623 86.4944 23.9041C86.7643 24.1459 87.1171 24.3455 87.5543 24.5043C87.9915 24.6632 88.4892 24.7967 89.0473 24.9092C89.6054 25.0203 90.1818 25.1426 90.7778 25.2719C91.3542 25.4026 91.9222 25.5601 92.4803 25.7457C93.0384 25.9312 93.536 26.1829 93.9732 26.4992C94.4104 26.8155 94.7633 27.2161 95.0332 27.6997C95.3031 28.1833 95.438 28.7794 95.438 29.4851C95.438 30.3412 95.2426 31.0666 94.8518 31.6613C94.461 32.2573 93.9535 32.7409 93.3308 33.112C92.708 33.4846 92.0149 33.7545 91.2516 33.9218C90.4882 34.0891 89.7347 34.1734 88.9911 34.1734C88.0787 34.1734 87.238 34.0708 86.4662 33.8669C85.6945 33.6617 85.0239 33.351 84.4574 32.9321C83.8894 32.5132 83.4438 31.993 83.1176 31.3688C82.7915 30.7461 82.62 30.0066 82.6017 29.1505H85.783V29.1491ZM96.2745 19.3549H98.6742V15.0292H101.856V19.3549H104.73V21.7265H101.856V29.4288C101.856 29.7634 101.87 30.053 101.898 30.2934C101.926 30.5352 101.99 30.7405 102.093 30.9077C102.196 31.075 102.349 31.2001 102.554 31.2845C102.758 31.3688 103.038 31.4096 103.391 31.4096C103.614 31.4096 103.838 31.4054 104.06 31.3956C104.283 31.3857 104.507 31.3534 104.729 31.2986V33.7545C104.375 33.791 104.032 33.829 103.697 33.8655C103.363 33.9021 103.018 33.9218 102.665 33.9218C101.827 33.9218 101.154 33.8431 100.642 33.6842C100.131 33.5267 99.7299 33.2934 99.4418 32.9869C99.1536 32.6805 98.9582 32.2939 98.8555 31.8285C98.7529 31.3632 98.6925 30.8332 98.6742 30.2386V21.7279H96.2745V19.3563V19.3549ZM106.961 19.3549H109.975V21.3075H110.032C110.479 20.4711 111.101 19.8708 111.901 19.5081C112.701 19.1454 113.566 18.9641 114.496 18.9641C115.631 18.9641 116.622 19.1637 117.468 19.5644C118.315 19.965 119.018 20.5133 119.576 21.2105C120.134 21.9078 120.553 22.7218 120.831 23.6524C121.109 24.5831 121.25 25.5784 121.25 26.6383C121.25 27.6055 121.125 28.546 120.873 29.457C120.622 30.3693 120.241 31.1734 119.729 31.8707C119.217 32.568 118.57 33.1261 117.789 33.545C117.007 33.9639 116.086 34.1734 115.026 34.1734C114.561 34.1734 114.096 34.1312 113.632 34.0483C113.167 33.964 112.72 33.829 112.292 33.6434C111.863 33.4579 111.468 33.2203 111.106 32.9321C110.743 32.6439 110.441 32.3037 110.199 31.9129H110.143V39.112H106.961V19.3549ZM118.067 26.5821C118.067 25.9312 117.983 25.2986 117.816 24.6843C117.648 24.0699 117.397 23.5259 117.062 23.0521C116.727 22.5784 116.309 22.1974 115.807 21.9078C115.305 21.6196 114.727 21.4748 114.076 21.4748C112.736 21.4748 111.727 21.9402 111.048 22.8694C110.369 23.8 110.029 25.0371 110.029 26.5807C110.029 27.3061 110.117 27.9809 110.295 28.6036C110.472 29.2264 110.736 29.762 111.09 30.2077C111.443 30.6547 111.866 31.0076 112.36 31.2676C112.852 31.5291 113.424 31.6584 114.076 31.6584C114.802 31.6584 115.416 31.5094 115.918 31.2114C116.42 30.9134 116.834 30.5282 117.159 30.053C117.484 29.5779 117.717 29.0394 117.856 28.4349C117.995 27.8305 118.066 27.2119 118.066 26.5793L118.067 26.5821ZM123.676 13.8568H126.858V16.8708H123.676V13.8568ZM123.676 19.3535H126.858V33.7798H123.676V19.3535ZM129.7 13.8568H132.881V33.7812H129.7V13.8582V13.8568ZM142.619 34.172C141.465 34.172 140.438 33.9808 139.537 33.5998C138.634 33.2189 137.872 32.6931 137.248 32.0239C136.624 31.3548 136.15 30.5549 135.825 29.6242C135.499 28.6936 135.337 27.6702 135.337 26.5554C135.337 25.4406 135.5 24.4439 135.825 23.5132C136.15 22.5826 136.625 21.7827 137.248 21.1135C137.871 20.4444 138.634 19.9186 139.537 19.5376C140.439 19.1567 141.467 18.9655 142.619 18.9655C143.772 18.9655 144.8 19.1567 145.702 19.5376C146.605 19.9186 147.367 20.4444 147.991 21.1135C148.614 21.7827 149.089 22.584 149.414 23.5132C149.738 24.4439 149.901 25.4575 149.901 26.5554C149.901 27.6533 149.738 28.695 149.414 29.6242C149.088 30.5549 148.614 31.3548 147.991 32.0239C147.367 32.6931 146.605 33.2189 145.702 33.5998C144.8 33.9808 143.772 34.172 142.619 34.172ZM142.619 31.6598C143.327 31.6598 143.941 31.5108 144.461 31.2128C144.981 30.9148 145.41 30.5254 145.745 30.0404C146.079 29.5568 146.325 29.0127 146.484 28.4082C146.641 27.8037 146.722 27.1852 146.722 26.5526C146.722 25.92 146.643 25.3253 146.484 24.711C146.327 24.0966 146.079 23.5526 145.745 23.0789C145.41 22.6051 144.981 22.2185 144.461 21.9205C143.94 21.6224 143.327 21.4734 142.619 21.4734C141.912 21.4734 141.298 21.6224 140.778 21.9205C140.256 22.2185 139.829 22.6037 139.494 23.0789C139.16 23.554 138.912 24.0981 138.755 24.711C138.596 25.3253 138.517 25.9382 138.517 26.5526C138.517 27.1669 138.596 27.8037 138.755 28.4082C138.912 29.0127 139.16 29.5568 139.494 30.0404C139.829 30.524 140.256 30.9148 140.778 31.2128C141.298 31.5108 141.912 31.6598 142.619 31.6598ZM150.824 19.3535H153.223V15.0278H156.405V19.3535H159.28V21.7251H156.405V29.4274C156.405 29.762 156.419 30.0516 156.447 30.292C156.475 30.5338 156.54 30.739 156.642 30.9063C156.745 31.0736 156.898 31.1987 157.103 31.2831C157.307 31.3674 157.587 31.4082 157.94 31.4082C158.163 31.4082 158.387 31.404 158.609 31.3941C158.833 31.3843 159.056 31.352 159.278 31.2971V33.7531C158.924 33.7896 158.581 33.8276 158.246 33.8641C157.912 33.9007 157.567 33.9204 157.214 33.9204C156.377 33.9204 155.703 33.8416 155.192 33.6828C154.68 33.5253 154.279 33.292 153.991 32.9855C153.703 32.6791 153.507 32.2925 153.405 31.8271C153.302 31.3618 153.242 30.8318 153.223 30.2372V21.7265H150.824V19.3549V19.3535Z" fill="#191919"/>
<path d="M38.17 13.8584L23.6003 13.8555L19.0989 0L14.5975 13.8541L0.027832 13.8513L11.8155 22.4183L7.31409 36.2766L19.1003 27.7125L30.8837 36.2766L26.3823 22.4225L38.17 13.8584Z" fill="#00B67A"/>
<path d="M27.403 25.5633L26.3824 22.4227L19.1003 27.7127L27.403 25.5633Z" fill="#005128"/>
</g>
</g>
</g>
<g clip-path="url(#clip3_1_1322)">
<g clip-path="url(#clip4_1_1322)">
<g clip-path="url(#clip5_1_1322)">
<path d="M3.01917 80.0282H31.2879V51.2922H3.01917V80.0335V80.0282ZM34.2613 80.0282H62.53V51.2922H34.2613V80.0335V80.0282ZM65.5193 80.0282H93.788V51.2922H65.5193V80.0335V80.0282ZM96.7774 80.0282H125.046V51.2922H96.7774V80.0335V80.0282ZM128.019 80.0282H156.288V51.2922H128.019V80.0335V80.0282Z" fill="#00B67A"/>
<path d="M14.8704 63.5203H7.29883L13.4262 68.0441L11.0846 75.3609L27.1198 63.5203H19.5482L17.2067 56.1982L14.8704 63.5203Z" fill="white"/>
<path d="M17.2067 70.8375L23.3287 75.3613L21.5871 69.903L17.2067 70.8375Z" fill="white"/>
<path d="M139.871 63.5203H132.299L138.421 68.0441L136.085 75.3609L152.12 63.5203H144.548L142.207 56.1982L139.871 63.5203Z" fill="white"/>
<path d="M142.207 70.8375L148.329 75.3613L146.588 69.903L142.207 70.8375Z" fill="white"/>
<path d="M108.628 63.5202H101.057L107.184 68.044L104.842 75.3607L120.878 63.5202H113.306L110.97 56.1981L108.628 63.5202Z" fill="white"/>
<path d="M110.97 70.8375L117.093 75.3613L115.346 69.903L110.97 70.8375Z" fill="white"/>
<path d="M77.3705 63.5203H69.799L75.921 68.0441L73.5847 75.3609L89.62 63.5203H82.0484L79.7068 56.1982L77.3705 63.5203Z" fill="white"/>
<path d="M79.7069 70.8375L85.829 75.3613L84.0874 69.903L79.7069 70.8375Z" fill="white"/>
<path d="M46.0599 63.6002H38.3715L44.5891 68.14L42.2157 75.4833L58.4898 63.6002H50.8067L48.428 56.257L46.0599 63.6002Z" fill="white"/>
<path d="M48.1246 70.864L54.2201 75.4834L52.4839 69.903L48.1246 70.864Z" fill="white"/>
<path d="M3.01917 80.0282H31.2879V51.2922H3.01917V80.0335V80.0282ZM34.2613 80.0282H62.53V51.2922H34.2613V80.0335V80.0282ZM65.5193 80.0282H93.788V51.2922H65.5193V80.0335V80.0282ZM96.7774 80.0282H125.046V51.2922H96.7774V80.0335V80.0282ZM128.019 80.0282H156.288V51.2922H128.019V80.0335V80.0282Z" fill="#00B67A"/>
<path d="M3.01917 80.0282H31.2879V51.2922H3.01917V80.0335V80.0282ZM34.2613 80.0282H62.53V51.2922H34.2613V80.0335V80.0282ZM65.5193 80.0282H93.788V51.2922H65.5193V80.0335V80.0282ZM96.7774 80.0282H125.046V51.2922H96.7774V80.0335V80.0282ZM128.019 80.0282H142.212V51.2922H128.019V80.0335V80.0282Z" fill="#00B67A"/>
<path d="M14.8704 63.5203H7.29883L13.4262 68.0441L11.0846 75.3609L27.1198 63.5203H19.5482L17.2067 56.1982L14.8704 63.5203Z" fill="white"/>
<path d="M17.2067 70.8375L23.3287 75.3613L21.5871 69.903L17.2067 70.8375Z" fill="white"/>
<path d="M156.289 51.2922H142.154V80.0335H156.289V51.2922Z" fill="#D1D3D4"/>
<path d="M139.871 63.5203H132.299L138.421 68.0441L136.085 75.3609L152.12 63.5203H144.548L142.207 56.1982L139.871 63.5203Z" fill="white"/>
<path d="M142.207 70.8375L148.329 75.3613L146.588 69.903L142.207 70.8375Z" fill="white"/>
<path d="M108.628 63.5202H101.057L107.184 68.044L104.842 75.3607L120.878 63.5202H113.306L110.97 56.1981L108.628 63.5202Z" fill="white"/>
<path d="M110.97 70.8375L117.093 75.3613L115.346 69.903L110.97 70.8375Z" fill="white"/>
<path d="M77.3705 63.5203H69.799L75.921 68.0441L73.5847 75.3609L89.62 63.5203H82.0484L79.7068 56.1982L77.3705 63.5203Z" fill="white"/>
<path d="M79.7069 70.8375L85.829 75.3613L84.0874 69.903L79.7069 70.8375Z" fill="white"/>
<path d="M46.0599 63.6002H38.3715L44.5891 68.14L42.2157 75.4833L58.4898 63.6002H50.8067L48.428 56.257L46.0599 63.6002Z" fill="white"/>
<path d="M48.1246 70.864L54.2201 75.4834L52.4839 69.903L48.1246 70.864Z" fill="white"/>
</g>
</g>
</g>
<defs>
<clipPath id="clip0_1_1322">
<rect width="159.307" height="39.1121" fill="white"/>
</clipPath>
<clipPath id="clip1_1_1322">
<rect width="159.307" height="39.1121" fill="white"/>
</clipPath>
<clipPath id="clip2_1_1322">
<rect width="159.252" height="39.1121" fill="white" transform="translate(0.0280762)"/>
</clipPath>
<clipPath id="clip3_1_1322">
<rect width="159.307" height="53.0967" fill="white" transform="translate(0 39.1119)"/>
</clipPath>
<clipPath id="clip4_1_1322">
<rect width="159.307" height="53.0967" fill="white" transform="translate(0 39.1119)"/>
</clipPath>
<clipPath id="clip5_1_1322">
<rect width="159.29" height="53.0967" fill="white" transform="translate(0.00891113 39.1119)"/>
</clipPath>
</defs>
</svg>
