<svg width="17" height="17" viewBox="0 0 17 17" fill="none" xmlns="http://www.w3.org/2000/svg">
<path d="M14.7 4.49531C14.2297 4.70312 13.7375 4.83984 13.2234 4.90547C13.4859 4.7414 13.7156 4.53633 13.9125 4.29023C14.1094 4.04414 14.257 3.76797 14.3554 3.46172C13.8414 3.76797 13.2945 3.98125 12.7148 4.10156C12.4742 3.83906 12.1898 3.63672 11.8617 3.49453C11.5336 3.35234 11.189 3.28125 10.8281 3.28125C10.3578 3.28125 9.92576 3.39609 9.53201 3.62578C9.13826 3.85547 8.8238 4.16992 8.58865 4.56914C8.35349 4.96836 8.23591 5.39765 8.23591 5.85703C8.23591 6.06484 8.25779 6.26172 8.30154 6.44766C7.25154 6.4039 6.25623 6.13594 5.3156 5.64375C4.40779 5.18437 3.62576 4.55547 2.96951 3.75703C2.73982 4.15078 2.62498 4.58281 2.62498 5.05312C2.62498 5.49062 2.72888 5.90078 2.93669 6.28359C3.14451 6.66641 3.42341 6.97265 3.77341 7.20234C3.35779 7.1914 2.96951 7.08203 2.60857 6.87422V6.90703C2.60857 7.53047 2.80544 8.08008 3.19919 8.55586C3.59294 9.03164 4.08513 9.32969 4.67576 9.45C4.45701 9.50469 4.23279 9.53203 4.0031 9.53203C3.83904 9.53203 3.67498 9.52109 3.51091 9.49922C3.67498 10.0133 3.97849 10.4371 4.42146 10.7707C4.86443 11.1043 5.36482 11.2766 5.92263 11.2875C5.47419 11.6375 4.97654 11.9109 4.42966 12.1078C3.88279 12.3047 3.31404 12.4031 2.72341 12.4031C2.5156 12.3922 2.30779 12.3758 2.09998 12.3539C2.67966 12.7258 3.3031 13.0102 3.97029 13.207C4.64841 13.4148 5.34294 13.5187 6.05388 13.5187C7.20232 13.5187 8.25779 13.2945 9.22029 12.8461C10.0953 12.4414 10.8609 11.8672 11.5172 11.1234C12.1297 10.4344 12.6054 9.64687 12.9445 8.76094C13.2617 7.89687 13.4203 7.03281 13.4203 6.16875L13.4039 5.82422C13.9179 5.46328 14.35 5.02031 14.7 4.49531Z" fill="white"/>
</svg>
